<svg xmlns="http://www.w3.org/2000/svg" viewBox="0 0 476.35 44.24"><defs><style>.cls-1{fill:#2787f5;}.cls-2{fill:#fff;fill-rule:evenodd;}</style></defs><g id="Layer_2" data-name="Layer 2"><g id="Layer_1-2" data-name="Layer 1"><path class="cls-1" d="M0,22.56c0-10,0-15,3.1-18.1s8.11-3.1,18.1-3.1H23c10,0,15,0,18.1,3.1s3.1,8.1,3.1,18.1V24.4c0,10,0,15-3.1,18.09S33,45.6,23,45.6H21.2c-10,0-15,0-18.1-3.11S0,34.39,0,24.4Z" transform="translate(0 -1.36)"/><path class="cls-2" d="M26.87,16.16v3.31l.05,1.85.24,1.57a7.17,7.17,0,0,1,.09,1v.57a7.82,7.82,0,0,1,.1,1.23,1,1,0,0,1,.33.85l-.05.95a5.4,5.4,0,0,1,.66,1.68c.29,1,.48,1.45.57,1.45.29,0,.73-.68,1.33-2l2.18-4.93a34.15,34.15,0,0,0,1.94-5,10.53,10.53,0,0,1,.29-3,3.11,3.11,0,0,1,1.94-1.95l.71-.28c.41,0,.62.43.62,1.18a13.61,13.61,0,0,1-.29,1.76q-.37,1.89-.66,2a14.06,14.06,0,0,1-1,3L33.79,27a30.83,30.83,0,0,1-2.65,5.4,1.87,1.87,0,0,1,.14.71,1.91,1.91,0,0,1-.71,1.26,9.47,9.47,0,0,0-.81.83,4.13,4.13,0,0,1-1.56,1.32l-.9.15c-.95,0-1.42-.38-1.42-1.14a2,2,0,0,1,.71-1.42l-.81-1.95-.28-1.7a2.61,2.61,0,0,1-.57-1.33,7.06,7.06,0,0,1-.24-1.56,10.33,10.33,0,0,1-.61-2.37v-.05A57.48,57.48,0,0,1,22.77,33a8.21,8.21,0,0,1-.33,1.23l-.62,1.09-1.18.57a1.85,1.85,0,0,1-1.09.38q-1.14,0-2.8-3.89l-2.51-5.92-1-2.37a11.83,11.83,0,0,0-.9-1.8,6.76,6.76,0,0,0-.81,2l-1,3.55q-.9,3.42-1.23,4.74L7.94,37a.76.76,0,0,1-.6.52c-.3.06-.48.16-.54.28a.75.75,0,0,1-.43-.76l.15-.9c.15-1,.3-1.8.42-2.27a16.79,16.79,0,0,1,.24-1.75A32.5,32.5,0,0,1,8,27.67a50.89,50.89,0,0,0,.76-5.35,39.88,39.88,0,0,1,.86-6.21l0-.52a5.39,5.39,0,0,1,.33-1.95q.19-.75.57-.75h.09l1-.15c.7,0,1.06.15,1.09.43l.29-.19a4.85,4.85,0,0,0,.71-.52c.6-.54,1-.81,1.28-.81s.42.3.42.81l-.95,2.65a5.07,5.07,0,0,0-.19,1.57l1,3.12a27.08,27.08,0,0,0,1.18,3c.23.79.38,1.37.48,1.75l1.56,3.79q1.47,3.6,2,3.84a12.11,12.11,0,0,0,.62-2.8l.8-5.11q.09-.61.29-6.68a16.93,16.93,0,0,1,.8-4.71A6.15,6.15,0,0,1,24,10l1.28-.61a2.3,2.3,0,0,1,1-.29.58.58,0,0,1,.61.43,2.63,2.63,0,0,1,.33,1.66L27,13.31l-.34,1.85Z" transform="translate(0 -1.36)"/><path d="M80.3,4.28l.76,4.12a22.12,22.12,0,0,1-5.8,1,20.06,20.06,0,0,0-5.6,1q-3.6,1.68-3.88,7c1.47-2.14,4-3.2,7.6-3.2a9.3,9.3,0,0,1,7,2.66,9.59,9.59,0,0,1,2.58,7,10.39,10.39,0,0,1-3,7.68,10.26,10.26,0,0,1-7.6,3c-3.62,0-6.39-1.16-8.3-3.5a13.74,13.74,0,0,1-2.86-9,38.25,38.25,0,0,1,.34-5.36,22.22,22.22,0,0,1,1.24-4.68,9.74,9.74,0,0,1,2.78-4,11.88,11.88,0,0,1,4.72-2.38A41.2,41.2,0,0,1,75.22,5,21.5,21.5,0,0,0,80.3,4.28ZM66,22.68v.44a7.41,7.41,0,0,0,1.76,5,5.79,5.79,0,0,0,4.64,2.06,5.55,5.55,0,0,0,4.3-1.7A6.22,6.22,0,0,0,78.26,24a5.59,5.59,0,0,0-1.52-4.2,5.79,5.79,0,0,0-4.24-1.48,7,7,0,0,0-4,1.16A6.66,6.66,0,0,0,66,22.68Z" transform="translate(0 -1.36)"/><path d="M104.26,34H99.7V17.44H92.34v3.24q0,10.42-4.56,12.79a7.4,7.4,0,0,1-4.2.68l-.36-4.24a3.23,3.23,0,0,0,2.7-1.08,8,8,0,0,0,1.34-3.12,28.32,28.32,0,0,0,.6-6.59V13.2h16.4Z" transform="translate(0 -1.36)"/><path d="M110.74,19.16,108.5,15.8a10.33,10.33,0,0,1,4-2.28,14.81,14.81,0,0,1,4.76-.8,8.49,8.49,0,0,1,6.32,2.22,8.61,8.61,0,0,1,2.2,6.34V34h-4.56V31.71a8.23,8.23,0,0,1-6.44,2.52,8.4,8.4,0,0,1-5.39-1.7,5.81,5.81,0,0,1-2.16-4.86,5.83,5.83,0,0,1,.88-3.27,5.35,5.35,0,0,1,2.39-2,13.76,13.76,0,0,1,3.08-1,17.79,17.79,0,0,1,3.36-.3,15,15,0,0,1,4.28.56,5,5,0,0,0-1-3.48,4.44,4.44,0,0,0-3.52-1.2A9.67,9.67,0,0,0,110.74,19.16Zm5,11.11a6.66,6.66,0,0,0,3.12-.76,5.78,5.78,0,0,0,2.32-2.08v-2a14.19,14.19,0,0,0-3.8-.55c-3.65,0-5.48.91-5.48,2.75a2.12,2.12,0,0,0,1.18,2A5.48,5.48,0,0,0,115.73,30.27Z" transform="translate(0 -1.36)"/><path d="M134.41,34h-4.56V13.2h15.68v4.24H134.41Z" transform="translate(0 -1.36)"/><path d="M146.09,23.56a10.3,10.3,0,0,1,3.16-7.84,12.11,12.11,0,0,1,16,0,10.37,10.37,0,0,1,3.13,7.82,10.17,10.17,0,0,1-3.2,7.79,11.17,11.17,0,0,1-7.95,3,11,11,0,0,1-7.94-3.06A10.28,10.28,0,0,1,146.09,23.56Zm4.72,0a6.48,6.48,0,0,0,1.8,4.67,6.06,6.06,0,0,0,4.6,1.88,6.24,6.24,0,0,0,4.7-1.8,6.54,6.54,0,0,0,1.74-4.75,6.54,6.54,0,0,0-1.8-4.74A6.18,6.18,0,0,0,157.21,17a6.09,6.09,0,0,0-4.64,1.86A6.59,6.59,0,0,0,150.81,23.56Z" transform="translate(0 -1.36)"/><path d="M176.32,17.44H168.8V13.2h19.6v4.24h-7.52V34h-4.56Z" transform="translate(0 -1.36)"/><path d="M200.48,34h-9.84V13.2h8.88a23.12,23.12,0,0,1,3.08.18,12.68,12.68,0,0,1,2.72.7,4.31,4.31,0,0,1,2.18,1.7A5.33,5.33,0,0,1,206,23a4.18,4.18,0,0,1,2.18,1.87,6,6,0,0,1,.74,3,5.11,5.11,0,0,1-2.4,4.76A11.49,11.49,0,0,1,200.48,34ZM199.4,17.32h-4.2v4.12h5.36a4.29,4.29,0,0,0,2.1-.5,1.73,1.73,0,0,0,.9-1.62,1.66,1.66,0,0,0-.72-1.44A6.78,6.78,0,0,0,199.4,17.32Zm.76,8.07h-5v4.48H200c2.74,0,4.12-.73,4.12-2.2a1.83,1.83,0,0,0-.72-1.54A3.06,3.06,0,0,0,202,25.5,13.24,13.24,0,0,0,200.16,25.39Z" transform="translate(0 -1.36)"/><path d="M211.12,23.56a10.3,10.3,0,0,1,3.16-7.84,12.1,12.1,0,0,1,16,0,10.34,10.34,0,0,1,3.14,7.82,10.21,10.21,0,0,1-3.2,7.79,11.17,11.17,0,0,1-8,3,11,11,0,0,1-7.94-3.06A10.31,10.31,0,0,1,211.12,23.56Zm4.71,0a6.48,6.48,0,0,0,1.8,4.67,6.08,6.08,0,0,0,4.6,1.88,6.22,6.22,0,0,0,4.7-1.8,6.54,6.54,0,0,0,1.74-4.75,6.54,6.54,0,0,0-1.8-4.74,6.72,6.72,0,0,0-9.28,0A6.63,6.63,0,0,0,215.83,23.56Z" transform="translate(0 -1.36)"/><path d="M241.23,42h-4.56V13.2h4.56v1.88a5.62,5.62,0,0,1,2.5-1.76,9.1,9.1,0,0,1,3.26-.6,9.47,9.47,0,0,1,7.38,3,10.77,10.77,0,0,1,2.7,7.56,11.42,11.42,0,0,1-2.86,8,9.68,9.68,0,0,1-7.54,3.16,12.33,12.33,0,0,1-3.1-.42,4.31,4.31,0,0,1-2.34-1.3Zm5.28-25a5.6,5.6,0,0,0-3.14.92,5.74,5.74,0,0,0-2.14,2.48v7.19a5.33,5.33,0,0,0,4.92,2.56,5.83,5.83,0,0,0,4.52-1.82,6.64,6.64,0,0,0,1.68-4.69,7.38,7.38,0,0,0-1.48-4.8A5.26,5.26,0,0,0,246.51,17Z" transform="translate(0 -1.36)"/><path d="M275.34,20.48,264.31,34h-4V13.2h4.56V26.75l11-13.55h4V34h-4.56Z" transform="translate(0 -1.36)"/><path d="M289.7,17.44h-7.52V13.2h19.6v4.24h-7.52V34H289.7Z" transform="translate(0 -1.36)"/><path d="M319.1,27.35l2.8,2.76a9.94,9.94,0,0,1-8.44,4.24,11.13,11.13,0,0,1-8.08-3,10.33,10.33,0,0,1-3.08-7.83,10.69,10.69,0,0,1,2.94-7.88,10.4,10.4,0,0,1,7.74-3,9.63,9.63,0,0,1,7,2.66,9.18,9.18,0,0,1,2.72,6.86,24.83,24.83,0,0,1-.24,2.92H307.06a4.9,4.9,0,0,0,2.1,3.69,7.49,7.49,0,0,0,4.38,1.26,7,7,0,0,0,3.12-.74A6.37,6.37,0,0,0,319.1,27.35Zm-6.32-10.51a5.92,5.92,0,0,0-3.7,1.16,5.2,5.2,0,0,0-2,3.2H318Q317.42,16.84,312.78,16.84Z" transform="translate(0 -1.36)"/><path d="M344,34h-4.56V17.44h-7.36v3.24q0,10.42-4.56,12.79a7.35,7.35,0,0,1-4.19.68L323,29.91a3.23,3.23,0,0,0,2.69-1.08A7.69,7.69,0,0,0,327,25.71a28.32,28.32,0,0,0,.6-6.59V13.2H344Z" transform="translate(0 -1.36)"/><path d="M356.93,34h-8.68V13.2h4.56v6h4.4q8.79,0,8.8,7.31a6.43,6.43,0,0,1-2.56,5.64A11.08,11.08,0,0,1,356.93,34Zm-.12-10.51h-4v6.27h4q4.51,0,4.52-3.16C361.29,24.51,359.79,23.48,356.81,23.48Z" transform="translate(0 -1.36)"/><path d="M388,34h-4.56V25.55h-10V34h-4.56V13.2h4.56v8.16h10V13.2H388Z" transform="translate(0 -1.36)"/><path d="M391.36,23.56a10.34,10.34,0,0,1,3.16-7.84,12.11,12.11,0,0,1,16,0,10.37,10.37,0,0,1,3.14,7.82,10.21,10.21,0,0,1-3.2,7.79,11.19,11.19,0,0,1-8,3,11,11,0,0,1-7.94-3.06A10.28,10.28,0,0,1,391.36,23.56Zm4.72,0a6.48,6.48,0,0,0,1.8,4.67,6.06,6.06,0,0,0,4.6,1.88,6.24,6.24,0,0,0,4.7-1.8,6.54,6.54,0,0,0,1.74-4.75,6.54,6.54,0,0,0-1.8-4.74A6.18,6.18,0,0,0,402.48,17a6.09,6.09,0,0,0-4.64,1.86A6.63,6.63,0,0,0,396.08,23.56Z" transform="translate(0 -1.36)"/><path d="M432.83,27.15l3.24,2.08a9.12,9.12,0,0,1-3.7,3.76,10.42,10.42,0,0,1-5.21,1.36,11.19,11.19,0,0,1-8.1-3,10.3,10.3,0,0,1-3.1-7.83,10.34,10.34,0,0,1,3.14-7.8,10.78,10.78,0,0,1,7.82-3,11.82,11.82,0,0,1,5.25,1.2,7.86,7.86,0,0,1,3.66,3.52l-3.4,2.24A6.32,6.32,0,0,0,427.12,17a6.17,6.17,0,0,0-4.66,1.84,6.53,6.53,0,0,0-1.78,4.76,6.11,6.11,0,0,0,2,4.75,7.06,7.06,0,0,0,4.94,1.8A6.05,6.05,0,0,0,432.83,27.15Z" transform="translate(0 -1.36)"/><path d="M444.27,17.44h-7.52V13.2h19.6v4.24h-7.52V34h-4.56Z" transform="translate(0 -1.36)"/><path d="M467.27,34h-8.68V13.2h4.56v6h4.4q8.79,0,8.8,7.31a6.43,6.43,0,0,1-2.56,5.64A11.08,11.08,0,0,1,467.27,34Zm-.12-10.51h-4v6.27h4q4.51,0,4.52-3.16C471.63,24.51,470.13,23.48,467.15,23.48Z" transform="translate(0 -1.36)"/></g></g></svg>