<svg xmlns="http://www.w3.org/2000/svg" viewBox="0 0 243.95 44.24"><defs><style>.cls-1{fill:#2787f5;}.cls-2{fill:#fff;fill-rule:evenodd;}</style></defs><g id="Layer_2" data-name="Layer 2"><g id="Layer_1-2" data-name="Layer 1"><path class="cls-1" d="M0,22.56c0-10,0-15,3.1-18.1s8.11-3.1,18.1-3.1H23c10,0,15,0,18.1,3.1s3.1,8.1,3.1,18.1V24.4c0,10,0,15-3.1,18.09S33,45.6,23,45.6H21.2c-10,0-15,0-18.1-3.11S0,34.39,0,24.4Z" transform="translate(0 -1.36)"/><path class="cls-2" d="M26.87,16.16v3.31l.05,1.85.24,1.57a7.17,7.17,0,0,1,.09,1v.57a7.82,7.82,0,0,1,.1,1.23,1,1,0,0,1,.33.85l-.05.95a5.4,5.4,0,0,1,.66,1.68c.29,1,.48,1.45.57,1.45.29,0,.73-.68,1.33-2l2.18-4.93a34.15,34.15,0,0,0,1.94-5,10.53,10.53,0,0,1,.29-3,3.11,3.11,0,0,1,1.94-1.95l.71-.28c.41,0,.62.43.62,1.19a13.86,13.86,0,0,1-.29,1.75q-.37,1.89-.66,2a14.06,14.06,0,0,1-1,3L33.79,27a30.83,30.83,0,0,1-2.65,5.4,1.87,1.87,0,0,1,.14.71,1.91,1.91,0,0,1-.71,1.26,11.33,11.33,0,0,0-.81.83,4.13,4.13,0,0,1-1.56,1.32l-.9.15c-.95,0-1.42-.38-1.42-1.14a2,2,0,0,1,.71-1.42l-.81-1.95-.28-1.7a2.61,2.61,0,0,1-.57-1.33,7.06,7.06,0,0,1-.24-1.56,10.33,10.33,0,0,1-.61-2.37v-.05A57.48,57.48,0,0,1,22.77,33a8.21,8.21,0,0,1-.33,1.23l-.62,1.09-1.18.57a1.85,1.85,0,0,1-1.09.38q-1.14,0-2.8-3.89l-2.51-5.92-1-2.37a11.83,11.83,0,0,0-.9-1.8,6.76,6.76,0,0,0-.81,2l-1,3.55q-.9,3.42-1.23,4.74L7.94,37a.76.76,0,0,1-.6.52c-.3.06-.48.16-.54.28a.75.75,0,0,1-.43-.76l.15-.9c.15-1,.3-1.8.42-2.27a16.79,16.79,0,0,1,.24-1.75A32.5,32.5,0,0,1,8,27.67a50.89,50.89,0,0,0,.76-5.35,39.88,39.88,0,0,1,.86-6.21l0-.52a5.39,5.39,0,0,1,.33-1.95q.19-.75.57-.75h.09l1-.15c.7,0,1.06.15,1.09.43l.29-.19a4.85,4.85,0,0,0,.71-.52c.6-.54,1-.81,1.28-.81s.42.3.42.81l-.95,2.65a5.07,5.07,0,0,0-.19,1.57l1,3.13a27.68,27.68,0,0,0,1.18,3c.23.79.38,1.37.48,1.75l1.56,3.79q1.47,3.6,2,3.84A12.11,12.11,0,0,0,21,29.43l.8-5.12q.09-.61.29-6.68a16.93,16.93,0,0,1,.8-4.71A6.15,6.15,0,0,1,24,10l1.28-.61a2.3,2.3,0,0,1,1-.29.59.59,0,0,1,.61.43,2.63,2.63,0,0,1,.33,1.66L27,13.31l-.34,1.85Z" transform="translate(0 -1.36)"/><path d="M76,25.36h-9.8v-4H75.9Q75,17,69.62,17a6.94,6.94,0,0,0-6.12,3l-3.32-2.44A11.56,11.56,0,0,1,70,12.72a10.42,10.42,0,0,1,7.88,3,10.81,10.81,0,0,1,2.88,7.86,10.37,10.37,0,0,1-3.06,7.85,10.93,10.93,0,0,1-7.9,2.94,14.52,14.52,0,0,1-5.7-1.12,7.5,7.5,0,0,1-3.9-3.48l3.32-2.39a6.83,6.83,0,0,0,5.88,2.75,7.69,7.69,0,0,0,4.34-1.23A5.13,5.13,0,0,0,76,25.36Z" transform="translate(0 -1.36)"/><path d="M88.54,34H84V13.2h4.56v8.44l9-8.44h6L93.38,22.6,103.86,34H98l-8-8.55-1.52,1.48Z" transform="translate(0 -1.36)"/><path d="M113.57,34.47q-6.6,0-9.59-5L107.42,27A6.57,6.57,0,0,0,110,29.5a7.71,7.71,0,0,0,3.58.85,7.36,7.36,0,0,0,3.16-.68,2.27,2.27,0,0,0,1.48-2.2c0-1.38-1.1-2.07-3.32-2.07h-4.6v-4h4.36a3.49,3.49,0,0,0,2-.58,1.84,1.84,0,0,0,.86-1.62,2,2,0,0,0-1.24-1.92,6.13,6.13,0,0,0-2.72-.6,7.2,7.2,0,0,0-5.87,2.8l-3.24-2.16a8.57,8.57,0,0,1,3.91-3.56,12.67,12.67,0,0,1,5.44-1.2,14.31,14.31,0,0,1,3.92.5A6.77,6.77,0,0,1,120.89,15a4.94,4.94,0,0,1,1.36,3.58,5.12,5.12,0,0,1-2,4.16A5,5,0,0,1,123,27.43a5.81,5.81,0,0,1-1.5,4.06,8,8,0,0,1-3.54,2.32A14.07,14.07,0,0,1,113.57,34.47Z" transform="translate(0 -1.36)"/><path d="M128.41,19.16l-2.24-3.36a10.37,10.37,0,0,1,4-2.28,14.81,14.81,0,0,1,4.76-.8,8.51,8.51,0,0,1,6.32,2.22,8.61,8.61,0,0,1,2.2,6.34V34h-4.56V31.71a8.24,8.24,0,0,1-6.44,2.52,8.42,8.42,0,0,1-5.4-1.7,5.81,5.81,0,0,1-2.16-4.86,5.94,5.94,0,0,1,.88-3.27,5.43,5.43,0,0,1,2.4-2,13.6,13.6,0,0,1,3.08-1,17.79,17.79,0,0,1,3.36-.3,15,15,0,0,1,4.28.56,5.08,5.08,0,0,0-1-3.48,4.45,4.45,0,0,0-3.52-1.2A9.7,9.7,0,0,0,128.41,19.16Zm5,11.11a6.72,6.72,0,0,0,3.12-.76,5.78,5.78,0,0,0,2.32-2.08v-2a13.83,13.83,0,0,0-3.8-.56c-3.65,0-5.48.91-5.48,2.75a2.11,2.11,0,0,0,1.18,2A5.45,5.45,0,0,0,133.41,30.27Z" transform="translate(0 -1.36)"/><path d="M152.09,34h-4.56V13.2h4.08l7.28,9.44,7.28-9.44h3.75V34h-4.55V21.08l-6.44,8.35L152.09,21Z" transform="translate(0 -1.36)"/><path d="M190,27.36l2.8,2.75a9.92,9.92,0,0,1-8.44,4.24,11.16,11.16,0,0,1-8.08-3,10.36,10.36,0,0,1-3.08-7.83,10.69,10.69,0,0,1,2.94-7.88,10.4,10.4,0,0,1,7.74-3,9.61,9.61,0,0,1,7,2.66,9.18,9.18,0,0,1,2.72,6.86,24.83,24.83,0,0,1-.24,2.92H178a5,5,0,0,0,2.1,3.69,7.53,7.53,0,0,0,4.38,1.26,7.06,7.06,0,0,0,3.12-.73A6.47,6.47,0,0,0,190,27.36Zm-6.32-10.52A5.94,5.94,0,0,0,180,18a5.29,5.29,0,0,0-2,3.2H189Q188.36,16.84,183.72,16.84Z" transform="translate(0 -1.36)"/><path d="M216.08,34h-4.56V25.56h-10V34H197V13.2h4.56v8.16h10V13.2h4.56Z" transform="translate(0 -1.36)"/><path d="M228.19,34h-7.83V13.2h4.55v6h3.6q8.81,0,8.8,7.32a6.36,6.36,0,0,1-2.6,5.61A11,11,0,0,1,228.19,34Zm0-10.51h-3.24v6.27h3.2q4.48,0,4.48-3.16a2.53,2.53,0,0,0-1.2-2.47A6.88,6.88,0,0,0,228.15,23.48ZM244,34h-4.56V13.2H244Z" transform="translate(0 -1.36)"/></g></g></svg>