<svg xmlns="http://www.w3.org/2000/svg" viewBox="0 0 240.51 44.24"><defs><style>.cls-1{fill:#2787f5;}.cls-2{fill:#fff;fill-rule:evenodd;}</style></defs><g id="Layer_2" data-name="Layer 2"><g id="Layer_1-2" data-name="Layer 1"><path class="cls-1" d="M0,22.56c0-10,0-15,3.1-18.1s8.11-3.1,18.1-3.1H23c10,0,15,0,18.1,3.1s3.1,8.1,3.1,18.1V24.4c0,10,0,15-3.1,18.09S33,45.6,23,45.6H21.2c-10,0-15,0-18.1-3.11S0,34.39,0,24.4Z" transform="translate(0 -1.36)"/><path class="cls-2" d="M26.87,16.16v3.31l.05,1.85.24,1.56a7.43,7.43,0,0,1,.09,1v.57a7.82,7.82,0,0,1,.1,1.23,1,1,0,0,1,.33.85l-.05.95a5.4,5.4,0,0,1,.66,1.68c.29,1,.48,1.45.57,1.45.29,0,.73-.68,1.33-2l2.18-4.93a34.15,34.15,0,0,0,1.94-5,10.53,10.53,0,0,1,.29-3,3.11,3.11,0,0,1,1.94-1.95l.71-.28c.41,0,.62.43.62,1.18a13.61,13.61,0,0,1-.29,1.76q-.37,1.89-.66,2a14.06,14.06,0,0,1-1,3L33.79,27a30.83,30.83,0,0,1-2.65,5.4,1.87,1.87,0,0,1,.14.71,1.91,1.91,0,0,1-.71,1.26,9.47,9.47,0,0,0-.81.83,4.22,4.22,0,0,1-1.56,1.32l-.9.14c-.95,0-1.42-.37-1.42-1.13a2,2,0,0,1,.71-1.42l-.81-1.95-.28-1.7a2.61,2.61,0,0,1-.57-1.33,7.06,7.06,0,0,1-.24-1.56,10.33,10.33,0,0,1-.61-2.37v-.05A57.48,57.48,0,0,1,22.77,33a8.21,8.21,0,0,1-.33,1.23l-.62,1.09-1.18.57a1.85,1.85,0,0,1-1.09.38q-1.14,0-2.8-3.89l-2.51-5.92-1-2.37a11.83,11.83,0,0,0-.9-1.8,6.76,6.76,0,0,0-.81,2l-1,3.55c-.6,2.28-1,3.85-1.23,4.74L7.94,37a.78.78,0,0,1-.6.52c-.3.06-.48.16-.54.28a.75.75,0,0,1-.43-.76l.15-.9c.15-1,.3-1.8.42-2.27a16.79,16.79,0,0,1,.24-1.75A32.5,32.5,0,0,1,8,27.67a50.89,50.89,0,0,0,.76-5.35,39.88,39.88,0,0,1,.86-6.21l0-.52a5.39,5.39,0,0,1,.33-1.95q.19-.75.57-.75h.09l1-.15c.7,0,1.06.15,1.09.43l.29-.19a4.85,4.85,0,0,0,.71-.52c.6-.54,1-.81,1.28-.81s.42.3.42.81l-.95,2.65a5.07,5.07,0,0,0-.19,1.57l1,3.12a27.08,27.08,0,0,0,1.18,3c.23.79.38,1.37.48,1.75l1.56,3.79q1.47,3.6,2,3.84a12.11,12.11,0,0,0,.62-2.8l.8-5.11q.09-.61.29-6.68a16.93,16.93,0,0,1,.8-4.71A6.15,6.15,0,0,1,24,10l1.28-.61a2.3,2.3,0,0,1,1-.29.58.58,0,0,1,.61.43,2.63,2.63,0,0,1,.33,1.66L27,13.31l-.34,1.85Z" transform="translate(0 -1.36)"/><path d="M69.9,34.47q-6.6,0-9.6-5L63.74,27a6.46,6.46,0,0,0,2.62,2.46,7.6,7.6,0,0,0,3.58.86,7.36,7.36,0,0,0,3.16-.68,2.27,2.27,0,0,0,1.48-2.2c0-1.38-1.1-2.08-3.32-2.08h-4.6V21.44H71a3.49,3.49,0,0,0,2-.58,1.86,1.86,0,0,0,.86-1.62,2,2,0,0,0-1.24-1.92,6.13,6.13,0,0,0-2.72-.6A7.23,7.23,0,0,0,64,19.52l-3.24-2.16A8.64,8.64,0,0,1,64.7,13.8a12.67,12.67,0,0,1,5.44-1.2,14.31,14.31,0,0,1,3.92.5A6.82,6.82,0,0,1,77.22,15a4.94,4.94,0,0,1,1.36,3.58,5.09,5.09,0,0,1-2,4.15,5.05,5.05,0,0,1,2.76,4.68,5.83,5.83,0,0,1-1.5,4.06,8,8,0,0,1-3.54,2.32A14.07,14.07,0,0,1,69.9,34.47Z" transform="translate(0 -1.36)"/><path d="M84.82,38.75H80.58v-9H83q2.35-4.08,2.36-12.95V13.2h15.92V29.75h2.92v9H99.94V34H84.82ZM96.7,17.44h-7v1.72a24.33,24.33,0,0,1-2,10.59h9Z" transform="translate(0 -1.36)"/><path d="M105.5,23.56a10.3,10.3,0,0,1,3.16-7.84,12.1,12.1,0,0,1,16,0,10.34,10.34,0,0,1,3.14,7.82,10.21,10.21,0,0,1-3.2,7.79,11.17,11.17,0,0,1-8,3,11,11,0,0,1-7.94-3.06A10.31,10.31,0,0,1,105.5,23.56Zm4.71,0a6.48,6.48,0,0,0,1.8,4.67,6.08,6.08,0,0,0,4.6,1.88,6.22,6.22,0,0,0,4.7-1.8,6.54,6.54,0,0,0,1.74-4.75,6.54,6.54,0,0,0-1.8-4.74,6.72,6.72,0,0,0-9.28,0A6.63,6.63,0,0,0,110.21,23.56Z" transform="translate(0 -1.36)"/><path d="M135.61,42h-4.56V13.2h4.56v1.88a5.62,5.62,0,0,1,2.5-1.76,9.1,9.1,0,0,1,3.26-.6,9.47,9.47,0,0,1,7.38,3,10.77,10.77,0,0,1,2.7,7.56,11.42,11.42,0,0,1-2.86,8,9.68,9.68,0,0,1-7.54,3.16,12.33,12.33,0,0,1-3.1-.42,4.31,4.31,0,0,1-2.34-1.3Zm5.28-25a5.6,5.6,0,0,0-3.14.92,5.74,5.74,0,0,0-2.14,2.48v7.19a5.33,5.33,0,0,0,4.92,2.56,5.83,5.83,0,0,0,4.52-1.82,6.64,6.64,0,0,0,1.68-4.69,7.38,7.38,0,0,0-1.48-4.8A5.26,5.26,0,0,0,140.89,17Z" transform="translate(0 -1.36)"/><path d="M153.77,23.56a10.3,10.3,0,0,1,3.16-7.84,12.1,12.1,0,0,1,16,0A10.34,10.34,0,0,1,176,23.56a10.17,10.17,0,0,1-3.2,7.79,11.17,11.17,0,0,1-8,3A11,11,0,0,1,157,31.29,10.28,10.28,0,0,1,153.77,23.56Zm4.72,0a6.48,6.48,0,0,0,1.8,4.67,6.06,6.06,0,0,0,4.6,1.88,6.22,6.22,0,0,0,4.69-1.8,6.54,6.54,0,0,0,1.74-4.75,6.54,6.54,0,0,0-1.8-4.74A6.15,6.15,0,0,0,164.89,17a6.09,6.09,0,0,0-4.64,1.86A6.59,6.59,0,0,0,158.49,23.56Z" transform="translate(0 -1.36)"/><path d="M189.16,34h-9.84V13.2h8.88a23.12,23.12,0,0,1,3.08.18,12.53,12.53,0,0,1,2.72.7,4.31,4.31,0,0,1,2.18,1.7,5.19,5.19,0,0,1,.78,2.94A5.12,5.12,0,0,1,194.64,23a4.14,4.14,0,0,1,2.18,1.87,6,6,0,0,1,.74,3,5.11,5.11,0,0,1-2.4,4.76A11.49,11.49,0,0,1,189.16,34Zm-1.08-16.67h-4.2v4.12h5.36a4.29,4.29,0,0,0,2.1-.5,1.73,1.73,0,0,0,.9-1.62,1.66,1.66,0,0,0-.72-1.44A6.76,6.76,0,0,0,188.08,17.32Zm.76,8.07h-5v4.48h4.84q4.13,0,4.12-2.2a1.83,1.83,0,0,0-.72-1.54,3.06,3.06,0,0,0-1.46-.63A13.13,13.13,0,0,0,188.84,25.39Z" transform="translate(0 -1.36)"/><path d="M209.44,34h-8.68V13.2h4.56v6h4.4q8.79,0,8.8,7.31A6.43,6.43,0,0,1,216,32.19,11.08,11.08,0,0,1,209.44,34Zm-.12-10.51h-4v6.27h4q4.51,0,4.52-3.16C213.8,24.51,212.3,23.48,209.32,23.48Z" transform="translate(0 -1.36)"/><path d="M236.87,27.35l2.8,2.76a9.92,9.92,0,0,1-8.44,4.24,11.16,11.16,0,0,1-8.08-3,10.36,10.36,0,0,1-3.08-7.83A10.69,10.69,0,0,1,223,15.68a10.4,10.4,0,0,1,7.74-3,9.61,9.61,0,0,1,7,2.66,9.18,9.18,0,0,1,2.72,6.86,24.83,24.83,0,0,1-.24,2.92H224.83a5,5,0,0,0,2.1,3.69,7.53,7.53,0,0,0,4.38,1.26,6.94,6.94,0,0,0,3.12-.74A6.22,6.22,0,0,0,236.87,27.35Zm-6.32-10.51a5.94,5.94,0,0,0-3.7,1.16,5.29,5.29,0,0,0-2,3.2h10.92C235.39,18.29,233.65,16.84,230.55,16.84Z" transform="translate(0 -1.36)"/></g></g></svg>