<svg xmlns="http://www.w3.org/2000/svg" viewBox="0 0 25.95 28.06"><defs><style>.cls-1{fill:#ff7979;}</style></defs><g id="Layer_2" data-name="Layer 2"><g id="Layer_1-2" data-name="Layer 1"><path class="cls-1" d="M0,27.74c0,.1.09.27.18.19l0-.34Z"/><path class="cls-1" d="M1,28a.84.84,0,0,0-.1-.77c0,.34-.09.23-.08.64-.09.08-.23,0-.26-.14,0,.1-.19,0-.17.22.24.18.42.11.53-.16C1,27.85,1,28,1,28Z"/><path class="cls-1" d="M11.49,23.1h0Z"/><path class="cls-1" d="M17.49,19.05a.08.08,0,0,0,0,.11C17.5,19.11,17.52,19.07,17.49,19.05Z"/><path class="cls-1" d="M18.68,18.55l-.07,0S18.69,18.58,18.68,18.55Z"/><path class="cls-1" d="M11.49,23.1l.22,0C11.66,23,11.59,23.07,11.49,23.1Z"/><path class="cls-1" d="M2.11,26.65a.23.23,0,0,0-.06.12.46.46,0,0,1,.07-.07Z"/><path class="cls-1" d="M8.9,25l-.05,0a.78.78,0,0,0,0,.14Z"/><path class="cls-1" d="M6.77,26.2c.06,0-.06-.27-.1-.39a.27.27,0,0,1,0,.23A.66.66,0,0,0,6.77,26.2Z"/><path class="cls-1" d="M3.07,27.47l0,.06Z"/><path class="cls-1" d="M10.44,24.14l.08.07A.27.27,0,0,0,10.44,24.14Z"/><path class="cls-1" d="M8.92,18.85l0,0S8.92,18.87,8.92,18.85Z"/><polygon class="cls-1" points="9.76 21.72 9.72 21.71 9.61 21.83 9.76 21.72"/><path class="cls-1" d="M20.65,17.34h0C20.62,17.41,20.64,17.38,20.65,17.34Z"/><path class="cls-1" d="M18.25,2.14c.31.17-.29.43.15.58C18.33,2.63,18.6,2.21,18.25,2.14Z"/><path class="cls-1" d="M2.18,26.66l.09-.05A.15.15,0,0,0,2.18,26.66Z"/><path class="cls-1" d="M18.4,2.72h0l.05,0Z"/><path class="cls-1" d="M24.3,13.32a.32.32,0,0,0-.13,0A.31.31,0,0,0,24.3,13.32Z"/><path class="cls-1" d="M21.27,16l.09,0A.19.19,0,0,0,21.27,16Z"/><path class="cls-1" d="M25.08,11.24c.05-.05.09-.05.09-.14h0S25.15,11.2,25.08,11.24Z"/><path class="cls-1" d="M25.75,9l-.06,0v.08Z"/><path class="cls-1" d="M6.63,13.66a1,1,0,0,1-.23.13C6.59,13.73,6.71,14,6.63,13.66Z"/><path class="cls-1" d="M2.17,26.79c0-.07,0-.11,0-.13l-.06,0A.19.19,0,0,0,2.17,26.79Z"/><path class="cls-1" d="M23.1,10.24l.15-.23A.76.76,0,0,0,23.1,10.24Z"/><path class="cls-1" d="M10.38,2.34l-.05,0A.05.05,0,0,0,10.38,2.34Z"/><path class="cls-1" d="M23.45,9.24a.49.49,0,0,0,.23-.1.18.18,0,0,0-.07-.05Z"/><path class="cls-1" d="M6.4,13.79Z"/><path class="cls-1" d="M7.52,15.55c-.08-.26-.38,0-.6,0-.2-.31.21-.24.36-.4-.16-.17-.52-.25-.55-.41s.07-.06.15,0c-.34-.16-.16-.66-.57-.86l.09-.05a1.54,1.54,0,0,1-.5.13c0-.13-.27-.21,0-.3,0,.08.11.07.19.1l-.13-.13c.32-.17.15.18.4.14-.15-.25-.48-.54-.41-.76.33-.08.18.47.44.16l-.08.33c.49-.31,0,.2.52-.1,0-.42-.23-.44-.17-.86-.2-.08-.28.05-.47,0-.39-.58.81-.52.35-.93-.23-.11-.66-.15-.44-.47l.39.11c0-.41-.56-.24-.29-.67.15.08.12.33.17.26.31-.27-.22-.2-.21-.42l.34,0c0-.43-.24-.94-.25-1.44.1,0,.19.14.31,0a3,3,0,0,1,.53-1.83L6.81,6.8S7,6.73,7,6.8c.16-.2-.18,0-.27-.19s.21-.12.27,0c-.16-.43-.23-1.25.22-1.51l0,.1c.22-.24-.42-.56,0-.72l0,.08c.37-.55.62-1.34,1.27-1.32-.22-.39.55-.22.25-.71.46.06.43.19.9.19.11,0,0-.4.18-.5l.08.29a3,3,0,0,1,.12-.36c.06.12.12.23.17.35a.48.48,0,0,1,.11-.09.29.29,0,0,1-.13-.22c.22-.17.52.2.49.36a1.63,1.63,0,0,1,.47-.17c-.05.11-.13.13-.2.2.29-.24-.06.3.2.1,0-.07.08-.16.11-.22a.45.45,0,0,0,.37.36l-.16.14c.17.2.51.38.67.75,0-.16.37-.3.46-.19l-.28.18c.21,0,.07-.18.36-.1,0,.18-.32.22-.44.18l.17.14a1.11,1.11,0,0,1-.28,0c.11-.05.06.23,0,.48a1.61,1.61,0,0,0,0,.38c0,.15,0,.28,0,.31l-.1.12c0,.19-.08.38-.12.55a.51.51,0,0,1,0,.14l-.09.23-.18.43L11,8.2l-.9,2.14L8.8,13.42l.08-.09a17.85,17.85,0,0,1,1.37-1.93c.33-.44.58-.77,1-1.42l.13,0h.07V10a.53.53,0,0,0,0,.22s-.07.2-.08.25,0,.06,0,0l.22-.23a10.71,10.71,0,0,0,.86-1.53c-.34.75.28,0-.25.89C13,8.72,13.31,8.38,14.32,7c-.07-.08-.14-.06-.06-.27s.3-.14.25.07l0,.09a3,3,0,0,1,.78-.82,8.54,8.54,0,0,1,.85-.39l.48-.17a1.49,1.49,0,0,0,.25-.07.48.48,0,0,0,.32-.34v0c.11-.17.23-.33.35-.49s-.05.24.19.3c.35-.64.85-.3,1.21-.72.56.6,1.25-.4,1.83,0l-.05-.18c.1-.19.17.08.26.11,0-.13-.15-.14-.09-.24a2.88,2.88,0,0,1,1.62,0,.73.73,0,0,1,.25.12.23.23,0,0,1,0,.11c0,.09-.07.09-.06.18s.9-.27.67.34L23,4.7c.66.65.48,1.59.89,2.3-.08,0-.18,0-.19-.1-.21.19,0,.59.24.59,0,.12-.18,0-.28.11s.31.4.07.48c0,0-.08-.05-.1-.08s-.06.47.23.4c-.16.26.05.55-.16.74.27.22-.27.42.13.59-.42-.15-.5.34-.39.6-.1-.11-.19.08-.33-.06-.07.19-.1.39.13.47-.64.07,0,.92-.74.73a5.53,5.53,0,0,1-.76,1.79c-.32-.32.42-.54,0-.83-.21.55-.16,1.07-.65,1.41-.15.07-.08-.2-.1-.29-.28.55-.84.77-1.07,1.31a.26.26,0,0,1,0-.17c-.07.09-.23.12-.08.26l0-.11c.32.11.1.75.19.88-.26-.56-.5.24-.78-.5a.27.27,0,0,0,.08.3c-.11,0-.19,0-.21-.19-.21.34,0,.41-.23.64-.06-.08,0-.15-.08-.27,0,.27,0,.53-.29.65,0-.05-.1-.09,0-.15-.36.35-.31,1-.86,1.16-.15-.43-.23,0-.49-.26l-.16.27.2.07c-.2.16-.21.51-.46.56l.06-.24-.34.36.3-.06c-.08.31.32.35,0,.48,0-.07-.21.16-.45.07h0c0,.17-.06.35-.26.4s-.22-.35-.3-.4c.09.33-.43.44-.36.8a.48.48,0,0,0-.16-.27l.07.26c-.14,0-.18,0-.26-.15-.32.18.38.31-.09.41,0,0,0-.06,0-.13-.41.17-.57.63-1,.75-.32-.24.23-.27-.07-.45-.42.38-.7,1.05-1.21,1.29l.11,0c.23.48-.49,0-.59.38,0-.07-.09-.29-.07-.23-.36.14-.57.53-1,1l0-.15c-.25,0-.53.26-.77.33,0,.16-.12.21.06.33-1-.27-1,1.1-1.9.88.06,0,.1-.2,0-.17l-.42.39c.15.18.14.09.33.18a.48.48,0,0,1-.2.4c.14-.26-.19-.32-.35-.38,0,0,.06.14.1.2-.46-.22.19.43-.3.38l0-.12c-.1.13-.15.34-.31.39-.19-.2.08-.19,0-.39-.2.13-.16.67-.46.53,0-.11.17-.18.22-.29-.35-.17-.33-.08-.5-.05h0l-.4.05.12,0c.08.75-.45.38-.58,1,.13-.56-.06-.25-.18-.54-.12,0-.3,0-.3-.14,0,.3-.35,0-.42.4,0-.08-.18.08-.25-.16-.17.17.13.13.16.24-.18.46-.93,0-1.21.65-.33.36-.26.7-.58,1-.19-.09,0-.38,0-.38a.55.55,0,0,0-.56.25c0-.09-.07-.14-.17-.22-.15.1,0,.38-.23.34a1.55,1.55,0,0,1,0-.43c-.15.16-.26.41-.42.58-.12-.14,0-.29,0-.42-.19.16-.5.38-.46.66l.17,0c-.07,0-.13-.2-.09-.27.11-.27.31,0,.36.06l-.12.11c.37.47.52-.32.81-.42l.05.44.15-.45c.1.08.24.27.13.39.28.1.11-.22.38-.08,0,0,0,0,0,.07l.14-.21c0,.1.16.26,0,.26.45.05.43-.55.7-.32l0,0c.42-.35-.09-.3.12-.79l.57.57-.09-.3c.06,0,.16,0,.2.08.09-.28-.09-.11-.07-.34.36.13.59-.44.86,0,0-.25-.3-.05-.13-.32.31.43.26-.22.58-.12.06.28-.21.26.11.36-.08-.47.46-.13.61-.3-.16-.33.32-.34.56-.61,0,.12.66-.14,1-.18l0,.06c-.13-.35.19-.44.36-.63a.42.42,0,0,1,0,.44l.2-.11A.39.39,0,0,1,9,24.68l.09.27c.25-.17.36-.59.79-.62-.12-.23-.63-.46-.37-.81.08.11.22.3.16.41s0-.16.13-.15l0,.28c.21,0,0-.21.11-.26.1.17.16.06.23.21s-.15,0-.15.09a.55.55,0,0,1,.5,0c-.07-.09-.13-.23,0-.31.25-.17.21.15.42.14,0-.15.22-.13.07-.39.08,0,.16.07.24.12.06-.19.59-.42.27-.59h0v0h0c.27-.53,1-.43,1.33-.82l.06.09c.18-.27.51-.43.57-.73.07-.05.28,0,.31.15.15-.19.11-.3.47-.35-.09.27.15.07-.12.24.29-.11.44,0,.55-.42.05.27.37.12.44,0l-.28,0a1,1,0,0,1,.37-.25l.13.31c.74,0,.48-1.21,1.26-.95,0-.28-.36.07-.41-.23.25-.13.77.06.84,0,.42-.1,0-.61.39-.76a.39.39,0,0,1-.18-.55c.25-.14.58.17.5.36s-.1,0-.12,0-.11.2.06.23l0-.11c.18,0,.48-.25.53,0,.09-.22-.05-.21-.21-.16.38-.09.44-.35.8-.5-.09,0-.22-.08-.17-.12.52-.23,0-.32.29-.6.28,0,.22.38.41,0,.25-.06.24.21.23.34.11-.4.59-.3.76-.4l-.07.19a.45.45,0,0,1,.18-.22L20,17.67c.1,0,.17-.09.24,0,0-.19-.32-.25-.3-.55.18,0,.23-.38.48-.18-.41.22.24.21,0,.49a.34.34,0,0,1,.21-.17.08.08,0,0,1,0,.09c.5-.07-.09-.39.24-.68.08.17.3.18.33.11-.13.11-.26-.17-.23-.38.3-.08.16-.28.28-.37l-.17.07c-.08-.17,0-.25.15-.42.1.09-.07.19,0,.19-.05-.38.59-.11.66-.47.19,0,.24.23.39.19.09-.4.44-.1.57-.49-.25-.09-.22,0-.21-.39l-.3.55,0-.51c-.12.12-.15.37-.26.42,0-.27,0-.21-.18-.29.43.08.19-.49.56-.53l.42.41c.5-.15.3-.78.77-1.12l-.19.07c-.14-.2.19-.29.23-.5.14.14.27.09.42.1-.13-.08.26-.35,0-.61l.35-.08c.35-.34-.19-.75.07-1.09.13.22.35.1.34.44.08-.13.17-.24.05-.3.16,0-.05-.5.18-.55-.06-.09-.24-.19-.16-.34a.14.14,0,0,1,.09,0c-.08,0,0-.3-.28-.24.76-.21.34-1.2.91-1.5,0-.34,0-.74-.05-1.05.06,0,.1,0,.08.06.19-.41-.56-.25-.37-.7.31-.26.18.23.3.08.65-.1-.12-.56.21-.91l.05.07c.19-.27-.33-.55-.36-.93a.2.2,0,0,0,.09,0,2.55,2.55,0,0,1-.8-1c.28,0,.18.12.41,0-.09-.15-.39.16-.55-.12.1-.14.14-.4.39-.52l.11.29c.29-.27-.14-.38-.14-.57l.15,0c-.27-.49-.58-.33-.95-.85L24.21,3c-.49,0,0-.38-.5-.35a2.85,2.85,0,0,0,.11-.39,2.53,2.53,0,0,0-.62,0c-.25,0-.46.11-.63.13A1.42,1.42,0,0,1,23.68,2a1.85,1.85,0,0,0-.56-.13.47.47,0,0,0-.41.13c.08,0,.21-.12.29,0a1.53,1.53,0,0,1-1,.4c.06-.77-.95-.16-1.27-.71-.63.35-1.34.08-2.1.34.42.49-.22.08,0,.65-.15.09-.22.1-.25.06l-.62-.16c-.19-.13.11-.19,0-.31-.39.09-.25-.19-.56-.25.13.19,0,.35-.26.36l.4.14c-.38.51-.65-.29-1,.25l.08-.25c-.22.22-1,.5-1,1.07-.08,0-.22-.14-.13-.24l-.12.06s0,0,0,0a.14.14,0,0,0,0,.07c0,.06,0,.15-.09.24s-.23.39-.24.22l.06-.23c0,.08-.16.47-.13.27l.08-.26c0,.09-.22.51-.21.4l.15-.33c0-.13-.08.08-.27.43l-.29.52c-.06.1-.09.17-.09.15.29-.58.52-1.07.69-1.4l.05-.1a.08.08,0,0,0,0,0s-.31.27-.52,0l.12-.13a.61.61,0,0,0,0-.27,2.31,2.31,0,0,0-.2-.67A14.64,14.64,0,0,0,13.51,1c0,.16-.25.22-.4.16s-.62-.1-.38-.41l.06.05c.09-.42-.4-.59-.74-.72l-.23.48A1.29,1.29,0,0,0,10.37.11c-.52.1-.9.3-1.22,0-.16.19-.4.27-.52.47L8.52.35a2.88,2.88,0,0,0-1.33.76V.86c-.34.24.14.94-.07,1.17l-.38-.22c-.43.47-1.12.82-1.07,1.56,0,0-.15-.11-.11-.21-.17.25-.75.92-.17,1-.35-.14-.26.56-.18.9L5,5c.26.36.35.39.36.76-.06.07-.24,0-.14-.07-.21.23.2.27,0,.56L5,6.06c-.09.28,0,.28.18.47S5,7,4.77,7c.15.06.32.25.22.4a.16.16,0,0,1-.16-.1c-.27.44.21.75-.11,1a.32.32,0,0,0-.17,0,3.66,3.66,0,0,1,.13-.64c-.25,0-.34.26-.66,0,.16.28.52.75.37,1l-.09,0,0,0a.21.21,0,0,0,0,.19.82.82,0,0,0-.1.24c-.21,0-.14.35-.16.5.28,0,.22.21.47,0,0,0,0,0,0-.14s0-.05,0-.07l0,0c0-.1,0-.24,0-.38.13.13.24.26.08.42L5,9.82c-.4.18-.63.58-.87.63.14.47.09,1.12.64,1.39.07.13-.15.16-.23.21s0-.16-.13-.2c.15.26.1.79.48.82-.14.35-.36-.16-.25.3l-.12-.06c-.48,1,1.11,1.31.61,2.42,0-.07,0-.11.1-.14,0,1.22,1,2.11,1.06,3.34.07.34.3.25.54.33l-.22.21.48.11c.46.24-.15,1.12.63,1.3l.11-.19c.1.2.53.44.33.57,0,0,.21-.09.19.05L8.21,21l.57.19c.22.36-.49.4,0,.85.23.12.8.07.8-.07a.29.29,0,0,1,0-.35l.21.07c.32-.34.71-.64.59-1.16l-.42,0,.09-.24.19.16c0-.25-.15-.17-.32-.15a.37.37,0,0,0,.08-.26l-.52.1c.11-.15.35-.16.28-.37-.24.05-.19.38-.46.31.06-.26.22-.34,0-.34a.22.22,0,0,1,.24-.11c-.22,0-.31-.26-.55-.16.1-.28-.38-.37,0-.63a.75.75,0,0,1-.54-.12c.58-.08-.27-.45.25-.7-.5.1-.52-.47-.9-.64,0,0,.12,0,.12,0-.06-.18.05-.3.08-.44-.37.14-.58-.09-.86-.14.25-.37.48-.05.78-.27-.29.14-.45-.24-.66-.07.15-.26,0-.19.32-.39C7,16.28,7.33,16,7,16c.14-.33.41-.21.18-.43C7.28,15.38,7.52,15.55,7.52,15.55ZM6.12,8.87h0v0Zm.07-.59a1.58,1.58,0,0,0-.05.25c-.1,0-.2,0-.18-.08S6.09,8.36,6.19,8.28ZM4.11,9.38c0-.11,0-.14.08-.15a1.76,1.76,0,0,0,0,.19h0Z"/><path class="cls-1" d="M4.46,9.59s0,0,0,.05l.07-.06-.09,0Z"/><path class="cls-1" d="M11.39,23.11h0l-.05,0S11.38,23.1,11.39,23.11Z"/><polygon class="cls-1" points="9.95 2.55 9.93 2.48 9.91 2.55 9.95 2.55"/><path class="cls-1" d="M8,24l-.07,0Z"/><path class="cls-1" d="M6.68,24.68H6.44A.86.86,0,0,0,6.68,24.68Z"/><path class="cls-1" d="M5.62,25.08a.81.81,0,0,0,0,.11h0Z"/><path class="cls-1" d="M19.94,14.69l0,0C20,14.55,20,14.61,19.94,14.69Z"/><path class="cls-1" d="M16.32,18.61a1.08,1.08,0,0,1,.05-.21C16.29,18.44,16.23,18.48,16.32,18.61Z"/><polygon class="cls-1" points="23.08 10.27 23.09 10.27 23.1 10.24 23.08 10.27"/><path class="cls-1" d="M16.57,18.25a.25.25,0,0,0-.2.15A.31.31,0,0,0,16.57,18.25Z"/><path class="cls-1" d="M1.19,27H1.13a.11.11,0,0,1,0,0Z"/><path class="cls-1" d="M1.14,27.08l0,.05S1.15,27.11,1.14,27.08Z"/><path class="cls-1" d="M1,27.24l.09-.11S1,27.16,1,27.24Z"/><path class="cls-1" d="M2.59,26.55l0-.1A.33.33,0,0,0,2.59,26.55Z"/><path class="cls-1" d="M3,26.33c-.11,0-.34-.08-.45,0l0,.08C2.57,26.28,3,26.53,3,26.33Z"/><path class="cls-1" d="M5.24,26.65l-.38.1c.11.06.25.16.11.26C5.54,27.08,4.77,26.83,5.24,26.65Z"/><path class="cls-1" d="M6.37,26.25c-.16.14.08.14.1.2C6.54,26.3,6.55,26.26,6.37,26.25Z"/><path class="cls-1" d="M13.76,21.81l.13.23C14,21.92,13.83,22,13.76,21.81Z"/><polygon class="cls-1" points="14.33 19.79 14.11 19.75 14.19 19.98 14.33 19.79"/><polygon class="cls-1" points="16.19 20.68 16.15 20.75 16.31 20.52 16.19 20.68"/><path class="cls-1" d="M25.92,9.49H25.6C25.63,9.61,26,9.71,25.92,9.49Z"/><path class="cls-1" d="M24.44,2.83c.07-.18-.06-.46-.29-.44C24.31,2.54,24.35,2.78,24.44,2.83Z"/><path class="cls-1" d="M11.53.06l.2-.06h-.35Z"/></g></g></svg>