<svg xmlns="http://www.w3.org/2000/svg" viewBox="0 0 377.17 111.59"><defs><style>.a{fill:#2787f5;fill-rule:evenodd;}</style></defs><path class="a" d="M0,.47c9.14,7.19,11.6,6.3,22.27,17.78C33.49,30.33,37.91,43.09,52.75,54.39c-6.13-1.37-8.08-4.91-11.81-7.12C38.23,55.71,29.62,67,24.08,69.5c5.25,3.71,27-4.85,33.16-9,6.59-4.4,13.35-1.75,21-7.25C92.39,43.14,84.4,33.16,99.58,31.89c-7.27-6.65-9.46-5.69-12.06-7.8C97,11.45,108.93,7.77,119.69.53,101.14-1,81.12,3,70.38,12.86c-12.73,11.68-3.32,18.85-.31,19.4,7.13,1.28,11.56-11.15,23.17-2.38C86,36.29,88.92,34.1,85,42,75,62.46,65.14,33.54,57.8,23.29,45.12,5.59,22.81-2,0,.47Z"/><path d="M143.25,70V65.21C128.7,64,120.06,57.15,120.06,46.06s8.64-17.86,23.19-19.15V22h10.22v4.9C168,28.2,176.66,35,176.66,46.06S168,64,153.47,65.21V70Zm0-14v-20c-8.29,1-12.68,4.61-12.68,10S135,55.06,143.25,56.07Zm10.22-20v20c8.28-.94,12.75-4.54,12.75-10S161.75,37.06,153.47,36.05Z"/><path d="M183.92,70V22h22.47c10.44,0,16.13,7.06,16.13,15.48S216.76,53,206.39,53H194.15V70Zm28.16-32.55c0-4-3-6.48-7.06-6.48H194.15V44H205C209.05,44,212.08,41.45,212.08,37.49Z"/><path d="M228.85,70V22h10.23V53l22.25-31h10.51V70H261.61V37.85L238.72,70Z"/><path d="M281.34,70V22h10.22V53l22.25-31h10.52V70H314.1V37.85L291.2,70Z"/><path d="M331.52,46.06c0-14.76,11.16-24.84,25.56-24.84,10.59,0,16.71,5.76,20.09,11.73l-8.78,4.32a13,13,0,0,0-11.31-7C348.37,30.29,342,37,342,46.06s6.34,15.77,15.05,15.77a12.89,12.89,0,0,0,11.31-7l8.78,4.25c-3.45,6-9.5,11.81-20.09,11.81C342.68,70.9,331.52,60.82,331.52,46.06Z"/><path d="M125.06,92v-.91c-2.71-.18-4.35-1.64-4.35-3.75s1.64-3.56,4.35-3.74V82.7h1.16v.94c2.69.18,4.36,1.65,4.36,3.74s-1.67,3.57-4.36,3.75V92Zm0-2V84.67c-2,.17-3.14,1.22-3.14,2.71S123.07,89.91,125.06,90.08Zm1.16-5.41v5.41c2-.17,3.15-1.22,3.15-2.7S128.19,84.84,126.22,84.67Z"/><path d="M131.94,88.65a3.36,3.36,0,1,1,3.35,3.56A3.32,3.32,0,0,1,131.94,88.65Zm5.59,0a2.27,2.27,0,1,0-2.24,2.62A2.35,2.35,0,0,0,137.53,88.65Z"/><path d="M140.34,92V85.28h1v2.81h3.53V85.28H146V92h-1.05V89h-3.53v3Z"/><path d="M147.27,91.17c.63-.11,1-.56,1.29-2.56l.44-3.33h4.7v5.84h.79v2.64h-1.05V92h-5.12v1.72h-1Zm2.34-2.43a3.51,3.51,0,0,1-1,2.38h4V86.2h-2.73Z"/><path d="M160.59,91v3.6h-1.05V85.28h1.05v1a2.84,2.84,0,0,1,2.28-1.17c1.78,0,3,1.34,3,3.54s-1.23,3.56-3,3.56A2.78,2.78,0,0,1,160.59,91Zm4.19-2.37c0-1.5-.82-2.6-2.18-2.6a2.51,2.51,0,0,0-2,1.07v3.06a2.5,2.5,0,0,0,2,1.09C164,91.27,164.78,90.15,164.78,88.65Z"/><path d="M171.77,92v-.77a2.91,2.91,0,0,1-2.24.94A2.25,2.25,0,0,1,167.17,90a2.21,2.21,0,0,1,2.36-2.23,2.81,2.81,0,0,1,2.24.93V87.45c0-.91-.72-1.43-1.7-1.43A2.67,2.67,0,0,0,168,87l-.49-.73a3.54,3.54,0,0,1,2.71-1.12c1.42,0,2.62.64,2.62,2.28V92Zm0-1.43V89.34a2.26,2.26,0,0,0-1.86-.84,1.49,1.49,0,1,0,0,3A2.26,2.26,0,0,0,171.77,90.61Z"/><path d="M174.26,91.1l.52-.67a3.63,3.63,0,0,0,2.54.91c1.2,0,2-.46,2-1.18S178.37,89,177.18,89h-1.52v-.85h1.52c1.12,0,2-.36,2-1.14s-.85-1.07-2-1.07a3,3,0,0,0-2.27.86l-.55-.64a3.75,3.75,0,0,1,2.77-1.08c1.82,0,3.11.66,3.11,1.81s-1,1.55-1.82,1.65c.79.06,2,.53,2,1.65s-1.15,2-3.09,2A4.23,4.23,0,0,1,174.26,91.1Z"/><path d="M182.12,92V85.28h3.72A1.71,1.71,0,0,1,187.75,87a1.57,1.57,0,0,1-1.09,1.54,1.74,1.74,0,0,1,1.23,1.66,1.78,1.78,0,0,1-2,1.83Zm4.55-4.87a.91.91,0,0,0-1-1h-2.49v1.9h2.49A.91.91,0,0,0,186.67,87.17Zm.13,2.91a1,1,0,0,0-1.1-1h-2.53v2.09h2.53A1,1,0,0,0,186.8,90.08Z"/><path d="M189.87,92V85.28h1v5.16l3.55-5.16h1V92h-1.05V86.77L190.88,92Z"/><path d="M198.83,92V86.2h-2v-.92h5v.92h-2V92Z"/><path d="M203.23,92V85.28h1.05v5.16l3.54-5.16h1V92h-1.05V86.77L204.24,92Z"/><path d="M210.73,92l1.81-2.66a2,2,0,0,1-1.74-2A2,2,0,0,1,213,85.28h3.57V92h-1.05V89.42h-1.85L212,92Zm4.74-3.54V86.2h-2.41a1.09,1.09,0,0,0-1.18,1.15,1.08,1.08,0,0,0,1.18,1.15Z"/><path d="M222.23,92V85.28h1.05v5.16l3.54-5.16h1V92h-1.05V86.77L223.24,92Z"/><path d="M230,92V85.28h1v2.81h3.53V85.28h1.05V92h-1.05V89H231v3Z"/><path d="M241.7,86.3V82.7h1.05v3.58a2.2,2.2,0,0,1,1.84-1.17c1.43,0,2.44,1.34,2.44,3.54s-1,3.56-2.44,3.56A2.16,2.16,0,0,1,242.75,91v3.6H241.7V91a2.19,2.19,0,0,1-1.85,1.18c-1.43,0-2.43-1.35-2.43-3.54s1-3.56,2.43-3.56A2.16,2.16,0,0,1,241.7,86.3Zm-3.22,2.37c0,1.49.62,2.6,1.67,2.6a1.85,1.85,0,0,0,1.55-1.08v-3a1.86,1.86,0,0,0-1.55-1.09C239.1,86.05,238.48,87.17,238.48,88.67Zm7.48,0c0-1.5-.62-2.6-1.67-2.6a1.86,1.86,0,0,0-1.54,1.07v3.06a1.86,1.86,0,0,0,1.54,1.09C245.34,91.27,246,90.15,246,88.65Z"/><path d="M248.46,88.65a3.36,3.36,0,1,1,3.35,3.56A3.32,3.32,0,0,1,248.46,88.65Zm5.59,0a2.28,2.28,0,1,0-2.24,2.62A2.35,2.35,0,0,0,254.05,88.65Z"/><path d="M257.91,91v3.6h-1.05V85.28h1.05v1a2.84,2.84,0,0,1,2.29-1.17c1.77,0,3,1.34,3,3.54s-1.24,3.56-3,3.56A2.8,2.8,0,0,1,257.91,91Zm4.19-2.37c0-1.5-.81-2.6-2.17-2.6a2.53,2.53,0,0,0-2,1.07v3.06a2.52,2.52,0,0,0,2,1.09C261.29,91.27,262.1,90.15,262.1,88.65Z"/><path d="M270.72,92V86.73L268.53,92h-.4l-2.21-5.31V92h-1.05V85.28h1.39l2.07,5,2.05-5h1.4V92Z"/><path d="M278.1,92v-.77a2.91,2.91,0,0,1-2.24.94A2.25,2.25,0,0,1,273.49,90a2.22,2.22,0,0,1,2.37-2.23,2.81,2.81,0,0,1,2.24.93V87.45c0-.91-.73-1.43-1.71-1.43a2.66,2.66,0,0,0-2.07.94l-.49-.73a3.53,3.53,0,0,1,2.7-1.12c1.43,0,2.62.64,2.62,2.28V92Zm0-1.43V89.34a2.26,2.26,0,0,0-1.86-.84,1.49,1.49,0,1,0,0,3A2.26,2.26,0,0,0,278.1,90.61Z"/><path d="M286.61,92h-5.36V85.28h1.05v5.84h3.53V85.28h1.05v5.84h.79v2.64h-1.06Z"/><path d="M289.1,92V85.28h1v5.16l3.55-5.16h1V92h-1.05V86.77L290.11,92Z"/><path d="M296.44,88.65a3.35,3.35,0,1,1,3.35,3.56A3.32,3.32,0,0,1,296.44,88.65Zm5.59,0a2.28,2.28,0,1,0-2.24,2.62A2.35,2.35,0,0,0,302,88.65Z"/><path d="M304.84,92V85.28h1.05v2.81h3.53V85.28h1.05V92h-1.05V89h-3.53v3Z"/><path d="M312.57,92V85.28h1.05v2.81h3.53V85.28h1.05V92h-1.05V89h-3.53v3Z"/><path d="M321.34,85.28v2.61h2.54a2.08,2.08,0,1,1,0,4.15h-3.59V85.28Zm0,3.54v2.3h2.43a1.15,1.15,0,1,0,0-2.3ZM327.12,92V85.28h1.05V92Z"/><path d="M334.65,92l-2-2.77-2,2.77h-1.2L332,88.57l-2.45-3.29h1.22l1.88,2.57,1.87-2.57h1.22l-2.45,3.29,2.6,3.47Z"/><path d="M121.05,108.84v-6.76h1v5.16l3.55-5.16h1v6.76h-1.05v-5.27l-3.57,5.27Z"/><path d="M132.39,108.84v-6.76h1.05v5.16l3.54-5.16h1v6.76H137v-5.27l-3.57,5.27Z"/><path d="M140.12,108.84v-6.76h1v2.81h3.53v-2.81h1.05v6.76H144.7v-3h-3.53v3Z"/><path d="M149.08,108.84V103h-2v-.92h5V103h-2v5.84Z"/><path d="M153.08,105.45a3.38,3.38,0,0,1,3.34-3.54c2,0,3.25,1.59,3.25,3.63v.26h-5.48a2.38,2.38,0,0,0,2.44,2.34,3,3,0,0,0,2.08-.85l.51.68a3.71,3.71,0,0,1-2.69,1A3.35,3.35,0,0,1,153.08,105.45Zm3.32-2.67a2.25,2.25,0,0,0-2.21,2.25h4.44A2.19,2.19,0,0,0,156.4,102.78Z"/><path d="M160.56,108.14c.63,0,1-.73,1.29-2.73l.43-3.33H167v6.76h-1.05V103h-2.73l-.31,2.54c-.31,2.52-1,3.47-2.34,3.47Z"/><path d="M168.29,108.14c.63,0,1-.73,1.28-2.73l.44-3.33h4.71v6.76h-1.06V103h-2.73l-.31,2.54c-.3,2.52-1,3.47-2.33,3.47Z"/><path d="M176.42,105.45a3.38,3.38,0,0,1,3.33-3.54c2.05,0,3.25,1.59,3.25,3.63v.26h-5.47a2.38,2.38,0,0,0,2.43,2.34,3,3,0,0,0,2.09-.85l.51.68a3.71,3.71,0,0,1-2.69,1A3.35,3.35,0,0,1,176.42,105.45Zm3.32-2.67a2.25,2.25,0,0,0-2.21,2.25H182A2.19,2.19,0,0,0,179.74,102.78Z"/><path d="M189.3,108.84l-2.43-3-1.12,1.11v1.93h-1.06v-6.76h1.06v3.6l3.55-3.6h1.33l-3,3.06,3,3.7Z"/><path d="M193.12,108.84V103h-2v-.92h5V103h-2v5.84Z"/><path d="M197.31,110.54a1.56,1.56,0,0,0,.57.11,1,1,0,0,0,1-.72l.45-1-2.83-6.83h1.13l2.26,5.54,2.24-5.54h1.15l-3.39,8.13a2,2,0,0,1-2,1.38,3.86,3.86,0,0,1-.77-.1Z"/><path d="M208.61,108.84v-.77a2.91,2.91,0,0,1-2.24.94,2.25,2.25,0,0,1-2.37-2.24,2.22,2.22,0,0,1,2.37-2.23,2.84,2.84,0,0,1,2.24.93v-1.22c0-.91-.73-1.43-1.71-1.43a2.66,2.66,0,0,0-2.07.94l-.49-.73a3.52,3.52,0,0,1,2.7-1.12c1.43,0,2.62.64,2.62,2.28v4.65Zm0-1.43v-1.27a2.27,2.27,0,0,0-1.86-.84,1.49,1.49,0,1,0,0,3A2.27,2.27,0,0,0,208.61,107.41Z"/><path d="M211,108.14c.63,0,1-.73,1.29-2.73l.43-3.33h4.71v6.76h-1V103h-2.73l-.31,2.54c-.31,2.52-1,3.47-2.34,3.47Z"/><path d="M220.54,102.08v2.61h2.53a2.08,2.08,0,1,1,0,4.15h-3.59v-6.76Zm0,3.54v2.3H223a1.15,1.15,0,1,0,0-2.3Z"/><path d="M226.79,108.84v-6.76h1.05v2.81h3.53v-2.81h1v6.76h-1v-3h-3.53v3Z"/><path d="M235.57,102.08v2.61h2.54a2.08,2.08,0,1,1,0,4.15h-3.59v-6.76Zm0,3.54v2.3H238a1.15,1.15,0,1,0,0-2.3Zm5.77,3.22v-6.76h1v6.76Z"/><path d="M248.87,108.84l-2-2.77-2,2.77H243.6l2.6-3.47-2.45-3.29H245l1.88,2.57,1.88-2.57h1.22l-2.46,3.29,2.61,3.47Z"/><path d="M254.51,105.45a3.34,3.34,0,0,1,3.38-3.54,2.9,2.9,0,0,1,2.48,1.17l-.7.65a2,2,0,0,0-1.73-.88,2.63,2.63,0,0,0,0,5.22,2.06,2.06,0,0,0,1.73-.88l.7.64a2.89,2.89,0,0,1-2.48,1.18A3.35,3.35,0,0,1,254.51,105.45Z"/><path d="M261.83,108.84v-6.76h1.05v5.16l3.55-5.16h1v6.76h-1v-5.27l-3.57,5.27Z"/><path d="M269.17,105.45a3.34,3.34,0,0,1,3.37-3.54,2.89,2.89,0,0,1,2.48,1.17l-.7.65a2,2,0,0,0-1.72-.88,2.63,2.63,0,0,0,0,5.22,2,2,0,0,0,1.72-.88l.7.64a2.87,2.87,0,0,1-2.48,1.18A3.35,3.35,0,0,1,269.17,105.45Z"/><path d="M277.72,108.84V103h-2v-.92h5V103h-2v5.84Z"/><path d="M281.73,105.45a3.38,3.38,0,0,1,3.33-3.54c2,0,3.25,1.59,3.25,3.63v.26h-5.48a2.39,2.39,0,0,0,2.44,2.34,3,3,0,0,0,2.09-.85l.5.68a3.68,3.68,0,0,1-2.69,1A3.35,3.35,0,0,1,281.73,105.45Zm3.32-2.67a2.25,2.25,0,0,0-2.22,2.25h4.44A2.18,2.18,0,0,0,285.05,102.78Z"/><path d="M295.85,108.84v-5.31l-2.19,5.31h-.4l-2.21-5.31v5.31H290v-6.76h1.39l2.07,5,2-5h1.41v6.76Z"/></svg>