<svg xmlns="http://www.w3.org/2000/svg" viewBox="0 0 305.25 60.47"><defs><style>.cls-1{fill:#fff;fill-rule:evenodd;}</style></defs><g id="Layer_2" data-name="Layer 2"><g id="Layer_1-2" data-name="Layer 1"><path d="M0,30.83C0,17.17,0,10.34,4.24,6.1S15.32,1.86,29,1.86H31.5c13.66,0,20.49,0,24.73,4.24s4.24,11.07,4.24,24.73v2.52c0,13.66,0,20.49-4.24,24.74S45.16,62.33,31.5,62.33H29c-13.66,0-20.49,0-24.74-4.24S0,47,0,33.35Z" transform="translate(0 -1.86)"/><path class="cls-1" d="M36.73,22.08v4.54l.07,2.52.32,2.14a8.93,8.93,0,0,1,.13,1.36v.78a11.43,11.43,0,0,1,.13,1.68,1.38,1.38,0,0,1,.45,1.17l-.06,1.3a7.31,7.31,0,0,1,.91,2.3c.39,1.31.64,2,.77,2,.39,0,1-.93,1.82-2.78l3-6.74a48.27,48.27,0,0,0,2.65-6.87,14.42,14.42,0,0,1,.39-4.14A4.26,4.26,0,0,1,50,18.65l1-.39q.84.07.84,1.62a18.44,18.44,0,0,1-.39,2.4c-.34,1.73-.64,2.65-.9,2.78a19,19,0,0,1-1.3,4.08l-3,7.78a41.55,41.55,0,0,1-3.63,7.38,2.44,2.44,0,0,1,.2,1,2.62,2.62,0,0,1-1,1.72,14.9,14.9,0,0,0-1.11,1.13,5.71,5.71,0,0,1-2.13,1.82l-1.23.19c-1.3,0-2-.52-2-1.55a2.84,2.84,0,0,1,1-1.95L35.24,44l-.38-2.33a3.59,3.59,0,0,1-.78-1.82,9.64,9.64,0,0,1-.33-2.13,14.36,14.36,0,0,1-.84-3.24V34.4a77,77,0,0,1-1.79,10.68,11,11,0,0,1-.45,1.68l-.84,1.49L28.21,49a2.48,2.48,0,0,1-1.49.52q-1.56,0-3.82-5.31l-3.44-8.1L18,32.9a14.28,14.28,0,0,0-1.23-2.46,9.08,9.08,0,0,0-1.1,2.79l-1.43,4.85q-1.23,4.66-1.68,6.48l-1.75,6a1,1,0,0,1-.81.71q-.61.12-.75.39a1,1,0,0,1-.58-1l.2-1.23a31.12,31.12,0,0,1,.58-3.11c0-.6.15-1.4.32-2.4a42.44,42.44,0,0,1,1.1-6.09,70.65,70.65,0,0,0,1-7.31q.78-7.71,1.17-8.49l-.07-.71a7.34,7.34,0,0,1,.45-2.66c.18-.69.44-1,.78-1h.13l1.3-.19c.95,0,1.44.19,1.49.58l.39-.26a7,7,0,0,0,1-.71c.82-.73,1.4-1.1,1.75-1.1s.58.41.58,1.1l-1.3,3.63a6.71,6.71,0,0,0-.26,2.14l1.37,4.27a36.18,36.18,0,0,0,1.61,4.15c.31,1.08.52,1.88.65,2.39L25.1,38.8q2,4.92,2.79,5.24a17,17,0,0,0,.84-3.82l1.1-7c.08-.57.21-3.61.39-9.14a23.12,23.12,0,0,1,1.09-6.43,8.57,8.57,0,0,1,1.47-3.93l1.75-.84a3.12,3.12,0,0,1,1.36-.39.8.8,0,0,1,.84.58,3.53,3.53,0,0,1,.46,2.27l-.26,2.85-.46,2.52Z" transform="translate(0 -1.86)"/><path d="M91.12,46.47H84.89V18h6.23v2.57a12.2,12.2,0,0,1,8.75-3.17q11.43,0,11.43,13V46.47h-6.24V30.89c0-2.55-.53-4.47-1.61-5.74s-2.87-1.92-5.38-1.92a7.13,7.13,0,0,0-4.16,1.34A7.88,7.88,0,0,0,91.12,28Z" transform="translate(0 -1.86)"/><path d="M138.57,37.39l3.83,3.77A13.56,13.56,0,0,1,130.87,47q-6.84,0-11.05-4.05a14.17,14.17,0,0,1-4.21-10.71q0-6.72,4-10.77a14.25,14.25,0,0,1,10.58-4.05A13.19,13.19,0,0,1,139.83,21a12.53,12.53,0,0,1,3.72,9.37,33.72,33.72,0,0,1-.33,4h-21.1a6.73,6.73,0,0,0,2.87,5,10.24,10.24,0,0,0,6,1.72,9.58,9.58,0,0,0,4.26-1A8.61,8.61,0,0,0,138.57,37.39ZM129.94,23a8.15,8.15,0,0,0-5.06,1.59A7.2,7.2,0,0,0,122.17,29H137.1Q136.28,23,129.94,23Z" transform="translate(0 -1.86)"/><path d="M146.17,32.2a14.12,14.12,0,0,1,4.32-10.72,16.55,16.55,0,0,1,21.84,0,14.18,14.18,0,0,1,4.29,10.69,14,14,0,0,1-4.37,10.66A15.31,15.31,0,0,1,161.37,47a15,15,0,0,1-10.85-4.18A14.06,14.06,0,0,1,146.17,32.2Zm6.45,0a8.87,8.87,0,0,0,2.46,6.39,8.31,8.31,0,0,0,6.29,2.57,8.5,8.5,0,0,0,6.42-2.46,8.93,8.93,0,0,0,2.38-6.5,9,9,0,0,0-2.46-6.48,8.44,8.44,0,0,0-6.34-2.54A8.34,8.34,0,0,0,155,25.72,9,9,0,0,0,152.62,32.2Z" transform="translate(0 -1.86)"/><path d="M213.52,18h6.34l-9.18,28.43h-5L198.82,28l-6.95,18.48H187L177.5,18H184l5.9,18,6.67-18h4.7l6.78,18Z" transform="translate(0 -1.86)"/><path d="M225.28,26.19l-3.07-4.6a14.49,14.49,0,0,1,5.42-3.11,20.4,20.4,0,0,1,6.5-1.1c3.76,0,6.63,1,8.64,3s3,4.91,3,8.66V46.47h-6.24V43.35q-3.1,3.45-8.8,3.44a11.56,11.56,0,0,1-7.38-2.32,8,8,0,0,1-3-6.64,8.08,8.08,0,0,1,1.2-4.48,7.45,7.45,0,0,1,3.28-2.79,19.05,19.05,0,0,1,4.21-1.34,24.6,24.6,0,0,1,4.6-.41,20.49,20.49,0,0,1,5.84.77,6.87,6.87,0,0,0-1.31-4.76q-1.42-1.63-4.81-1.64A13.21,13.21,0,0,0,225.28,26.19Zm6.83,15.19a9.12,9.12,0,0,0,4.26-1,8,8,0,0,0,3.17-2.84V34.77a19.26,19.26,0,0,0-5.19-.77q-7.48,0-7.49,3.78a2.91,2.91,0,0,0,1.61,2.73A7.56,7.56,0,0,0,232.11,41.38Z" transform="translate(0 -1.86)"/><path d="M271.3,18h6.62L265.29,46.47H260.7L247.47,18h7.05l8.58,19Z" transform="translate(0 -1.86)"/><path d="M300.28,37.39l3.83,3.77A13.58,13.58,0,0,1,292.57,47q-6.84,0-11-4.05a14.14,14.14,0,0,1-4.21-10.71q0-6.72,4-10.77a14.23,14.23,0,0,1,10.57-4.05A13.21,13.21,0,0,1,301.54,21a12.56,12.56,0,0,1,3.71,9.37,35.53,35.53,0,0,1-.32,4H283.82a6.76,6.76,0,0,0,2.87,5,10.26,10.26,0,0,0,6,1.72,9.52,9.52,0,0,0,4.26-1A8.64,8.64,0,0,0,300.28,37.39ZM291.64,23a8.17,8.17,0,0,0-5.06,1.59,7.18,7.18,0,0,0-2.7,4.37H298.8Q298,23,291.64,23Z" transform="translate(0 -1.86)"/></g></g></svg>