<svg xmlns="http://www.w3.org/2000/svg" viewBox="0 0 436.95 44.24"><defs><style>.cls-1{fill:#2787f5;}.cls-2{fill:#fff;fill-rule:evenodd;}</style></defs><g id="Layer_2" data-name="Layer 2"><g id="Layer_1-2" data-name="Layer 1"><path class="cls-1" d="M0,22.56c0-10,0-15,3.1-18.1s8.11-3.1,18.1-3.1H23c10,0,15,0,18.1,3.1s3.1,8.1,3.1,18.1V24.4c0,10,0,15-3.1,18.09S33,45.6,23,45.6H21.2c-10,0-15,0-18.1-3.11S0,34.39,0,24.4Z" transform="translate(0 -1.36)"/><path class="cls-2" d="M26.87,16.16v3.31l.05,1.85.24,1.57a7.17,7.17,0,0,1,.09,1v.57a7.82,7.82,0,0,1,.1,1.23,1,1,0,0,1,.33.85l-.05.95a5.4,5.4,0,0,1,.66,1.68c.29,1,.48,1.45.57,1.45.29,0,.73-.68,1.33-2l2.18-4.93a34.15,34.15,0,0,0,1.94-5,10.53,10.53,0,0,1,.29-3,3.11,3.11,0,0,1,1.94-1.95l.71-.28c.41,0,.62.43.62,1.19a13.86,13.86,0,0,1-.29,1.75q-.37,1.89-.66,2a14.06,14.06,0,0,1-1,3L33.79,27a30.83,30.83,0,0,1-2.65,5.4,1.87,1.87,0,0,1,.14.71,1.91,1.91,0,0,1-.71,1.26,11.33,11.33,0,0,0-.81.83,4.13,4.13,0,0,1-1.56,1.32l-.9.15c-.95,0-1.42-.38-1.42-1.14a2,2,0,0,1,.71-1.42l-.81-1.95-.28-1.7a2.61,2.61,0,0,1-.57-1.33,7.06,7.06,0,0,1-.24-1.56,10.33,10.33,0,0,1-.61-2.37v-.05A57.48,57.48,0,0,1,22.77,33a8.21,8.21,0,0,1-.33,1.23l-.62,1.09-1.18.57a1.85,1.85,0,0,1-1.09.38q-1.14,0-2.8-3.89l-2.51-5.92-1-2.37a11.83,11.83,0,0,0-.9-1.8,6.76,6.76,0,0,0-.81,2l-1,3.55q-.9,3.42-1.23,4.74L7.94,37a.76.76,0,0,1-.6.52c-.3.06-.48.16-.54.28a.75.75,0,0,1-.43-.76l.15-.9c.15-1,.3-1.8.42-2.27a16.79,16.79,0,0,1,.24-1.75A32.5,32.5,0,0,1,8,27.67a50.89,50.89,0,0,0,.76-5.35,39.88,39.88,0,0,1,.86-6.21l0-.52a5.39,5.39,0,0,1,.33-1.95q.19-.75.57-.75h.09l1-.15c.7,0,1.06.15,1.09.43l.29-.19a4.85,4.85,0,0,0,.71-.52c.6-.54,1-.81,1.28-.81s.42.3.42.81l-.95,2.65a5.07,5.07,0,0,0-.19,1.57l1,3.13a27.68,27.68,0,0,0,1.18,3c.23.79.38,1.37.48,1.75l1.56,3.79q1.47,3.6,2,3.84A12.11,12.11,0,0,0,21,29.43l.8-5.12q.09-.61.29-6.68a16.93,16.93,0,0,1,.8-4.71A6.15,6.15,0,0,1,24,10l1.28-.61a2.3,2.3,0,0,1,1-.29.59.59,0,0,1,.61.43,2.63,2.63,0,0,1,.33,1.66L27,13.31l-.34,1.85Z" transform="translate(0 -1.36)"/><path d="M78,27.15l3.24,2.08A9.18,9.18,0,0,1,77.56,33a10.43,10.43,0,0,1-5.22,1.36,11.23,11.23,0,0,1-8.1-3,10.34,10.34,0,0,1-3.1-7.83,10.37,10.37,0,0,1,3.14-7.8,10.8,10.8,0,0,1,7.82-3,11.83,11.83,0,0,1,5.26,1.2A7.86,7.86,0,0,1,81,17.44l-3.4,2.24A6.33,6.33,0,0,0,72.3,17a6.18,6.18,0,0,0-4.66,1.84,6.57,6.57,0,0,0-1.78,4.76,6.11,6.11,0,0,0,2,4.75,7.07,7.07,0,0,0,4.94,1.8A6.06,6.06,0,0,0,78,27.15Z" transform="translate(0 -1.36)"/><path d="M89.46,17.44H81.94V13.2h19.6v4.24H94V34H89.46Z" transform="translate(0 -1.36)"/><path d="M105.45,41.75l1.8-3.88a1.78,1.78,0,0,0,.92.24q1.89,0,3.28-3.48l.72-1.88L101.94,13.2h5.27l7.16,14,5.52-14h4.88l-8.16,20.19a26,26,0,0,1-3.6,6.72,5.84,5.84,0,0,1-4.68,2.24A6.41,6.41,0,0,1,105.45,41.75Z" transform="translate(0 -1.36)"/><path d="M127.61,38.75h-4.24v-9h2.4q2.36-4.08,2.36-12.95V13.2h15.92V29.75H147v9h-4.24V34H127.61Zm11.88-21.31h-7v1.72a24.33,24.33,0,0,1-2,10.59h9Z" transform="translate(0 -1.36)"/><path d="M165.08,27.35l2.8,2.76a9.92,9.92,0,0,1-8.44,4.24,11.12,11.12,0,0,1-8.07-3,10.33,10.33,0,0,1-3.08-7.83,10.69,10.69,0,0,1,2.94-7.88,10.39,10.39,0,0,1,7.73-3,9.61,9.61,0,0,1,7,2.66,9.14,9.14,0,0,1,2.72,6.86,24.83,24.83,0,0,1-.24,2.92H153.05a4.9,4.9,0,0,0,2.1,3.69,7.48,7.48,0,0,0,4.37,1.26,6.94,6.94,0,0,0,3.12-.74A6.22,6.22,0,0,0,165.08,27.35Zm-6.32-10.51A5.89,5.89,0,0,0,155.07,18a5.2,5.2,0,0,0-2,3.2H164C163.6,18.29,161.86,16.84,158.76,16.84Z" transform="translate(0 -1.36)"/><path d="M191.12,34h-4.56V25.56h-10V34H172V13.2h4.56v8.16h10V13.2h4.56Z" transform="translate(0 -1.36)"/><path d="M208.44,13.2H213V34h-4.55V25.83a8,8,0,0,1-5.6,1.92q-8.37,0-8.36-8.27V13.2H199v4.72a7,7,0,0,0,1,4.22c.69.92,1.94,1.38,3.76,1.38a6.22,6.22,0,0,0,4.6-2.28Z" transform="translate(0 -1.36)"/><path d="M233.07,27.35l2.8,2.76a9.92,9.92,0,0,1-8.44,4.24,11.16,11.16,0,0,1-8.08-3,10.36,10.36,0,0,1-3.08-7.83,10.69,10.69,0,0,1,2.94-7.88,10.4,10.4,0,0,1,7.74-3,9.61,9.61,0,0,1,7,2.66,9.18,9.18,0,0,1,2.72,6.86,24.83,24.83,0,0,1-.24,2.92H221a5,5,0,0,0,2.1,3.69,7.53,7.53,0,0,0,4.38,1.26,6.94,6.94,0,0,0,3.12-.74A6.29,6.29,0,0,0,233.07,27.35Zm-6.32-10.51a5.94,5.94,0,0,0-3.7,1.16,5.29,5.29,0,0,0-2,3.2H232Q231.39,16.84,226.75,16.84Z" transform="translate(0 -1.36)"/><path d="M255.51,27.15l3.24,2.08a9.24,9.24,0,0,1-3.7,3.76,10.48,10.48,0,0,1-5.22,1.36,11.19,11.19,0,0,1-8.1-3,10.3,10.3,0,0,1-3.1-7.83,10.37,10.37,0,0,1,3.14-7.8,10.78,10.78,0,0,1,7.82-3,11.86,11.86,0,0,1,5.26,1.2,7.86,7.86,0,0,1,3.66,3.52l-3.4,2.24A6.34,6.34,0,0,0,249.79,17a6.17,6.17,0,0,0-4.66,1.84,6.53,6.53,0,0,0-1.78,4.76,6.11,6.11,0,0,0,2,4.75,7.06,7.06,0,0,0,4.94,1.8A6.07,6.07,0,0,0,255.51,27.15Z" transform="translate(0 -1.36)"/><path d="M265.66,34h-4.55V13.2h4.55v8.44l9-8.44h6L270.5,22.6,281,34h-5.84l-8-8.55-1.52,1.48Z" transform="translate(0 -1.36)"/><path d="M297.9,20.48,286.86,34h-4V13.2h4.56V26.75l11-13.55h4V34H297.9Z" transform="translate(0 -1.36)"/><path d="M321.73,20.48,310.7,34h-4V13.2h4.56V26.75l11-13.55h4V34h-4.56ZM309.9,4.36h4.2a2.77,2.77,0,0,0,.8,2,3.17,3.17,0,0,0,4.07,0,2.71,2.71,0,0,0,.72-2h4.16a6.21,6.21,0,0,1-2,4.6A7.09,7.09,0,0,1,317,10.6a7.57,7.57,0,0,1-5-1.64A5.87,5.87,0,0,1,309.9,4.36Z" transform="translate(0 -1.36)"/><path d="M339.05,23.56a10.3,10.3,0,0,1,3.16-7.84,12.11,12.11,0,0,1,16,0,10.37,10.37,0,0,1,3.14,7.82,10.21,10.21,0,0,1-3.2,7.79,11.21,11.21,0,0,1-8,3,11,11,0,0,1-7.94-3.06A10.28,10.28,0,0,1,339.05,23.56Zm4.72,0a6.48,6.48,0,0,0,1.8,4.67,6.06,6.06,0,0,0,4.6,1.88,6.24,6.24,0,0,0,4.7-1.8,6.54,6.54,0,0,0,1.74-4.75,6.54,6.54,0,0,0-1.8-4.74A6.18,6.18,0,0,0,350.17,17a6.09,6.09,0,0,0-4.64,1.86A6.63,6.63,0,0,0,343.77,23.56Z" transform="translate(0 -1.36)"/><path d="M379.44,42h-4.56v-7.6h-.24a11.19,11.19,0,0,1-8.07-2.94,10.27,10.27,0,0,1-3.08-7.81,10.18,10.18,0,0,1,3.2-7.8,11.12,11.12,0,0,1,7.91-3h.28v-8h4.56v8h.32a11,11,0,0,1,8,3,10.36,10.36,0,0,1,3.1,7.8,10.2,10.2,0,0,1-3.1,7.87,11.35,11.35,0,0,1-8.06,2.88h-.24Zm-9.57-23.17a6.68,6.68,0,0,0-1.67,4.82,6.59,6.59,0,0,0,1.68,4.79,6.34,6.34,0,0,0,4.76,1.72h.24V17.08h-.28A6.21,6.21,0,0,0,369.87,18.82Zm9.81-1.74h-.24V30.15h.24q6.45,0,6.44-6.51a6.65,6.65,0,0,0-1.66-4.86A6.34,6.34,0,0,0,379.68,17.08Z" transform="translate(0 -1.36)"/><path d="M409,20.48,397.92,34h-4V13.2h4.56V26.75l11-13.55h4V34H409Z" transform="translate(0 -1.36)"/><path d="M433.71,27.15,437,29.23a9.12,9.12,0,0,1-3.7,3.76A10.43,10.43,0,0,1,428,34.35a11.19,11.19,0,0,1-8.09-3,10.3,10.3,0,0,1-3.1-7.83,10.34,10.34,0,0,1,3.14-7.8,10.76,10.76,0,0,1,7.81-3,11.83,11.83,0,0,1,5.26,1.2,7.86,7.86,0,0,1,3.66,3.52l-3.4,2.24A6.33,6.33,0,0,0,428,17a6.18,6.18,0,0,0-4.66,1.84,6.56,6.56,0,0,0-1.77,4.76,6.13,6.13,0,0,0,2,4.75,7.09,7.09,0,0,0,4.94,1.8A6.06,6.06,0,0,0,433.71,27.15Z" transform="translate(0 -1.36)"/></g></g></svg>