<svg xmlns="http://www.w3.org/2000/svg" viewBox="0 0 127.33 44.24"><defs><style>.cls-1{fill:#2787f5;}.cls-2{fill:#fff;fill-rule:evenodd;}</style></defs><g id="Layer_2" data-name="Layer 2"><g id="Layer_1-2" data-name="Layer 1"><path class="cls-1" d="M0,22.56c0-10,0-15,3.1-18.1s8.11-3.1,18.1-3.1H23c10,0,15,0,18.1,3.1s3.1,8.1,3.1,18.1V24.4c0,10,0,15-3.1,18.09S33,45.6,23,45.6H21.2c-10,0-15,0-18.1-3.11S0,34.39,0,24.4Z" transform="translate(0 -1.36)"/><path class="cls-2" d="M26.87,16.16v3.31l.05,1.85.24,1.57a7.17,7.17,0,0,1,.09,1v.57a7.82,7.82,0,0,1,.1,1.23,1,1,0,0,1,.33.85l-.05.95a5.4,5.4,0,0,1,.66,1.68c.29,1,.48,1.45.57,1.45.29,0,.73-.68,1.33-2l2.18-4.93a34.15,34.15,0,0,0,1.94-5,10.53,10.53,0,0,1,.29-3,3.11,3.11,0,0,1,1.94-1.95l.71-.28c.41,0,.62.43.62,1.18a13.61,13.61,0,0,1-.29,1.76q-.37,1.89-.66,2a14.06,14.06,0,0,1-1,3L33.79,27a30.83,30.83,0,0,1-2.65,5.4,1.87,1.87,0,0,1,.14.71,1.91,1.91,0,0,1-.71,1.26,9.47,9.47,0,0,0-.81.83,4.13,4.13,0,0,1-1.56,1.32l-.9.15c-.95,0-1.42-.38-1.42-1.14a2,2,0,0,1,.71-1.42l-.81-1.95-.28-1.7a2.61,2.61,0,0,1-.57-1.33,7.06,7.06,0,0,1-.24-1.56,10.33,10.33,0,0,1-.61-2.37v-.05A57.48,57.48,0,0,1,22.77,33a8.21,8.21,0,0,1-.33,1.23l-.62,1.09-1.18.57a1.85,1.85,0,0,1-1.09.38q-1.14,0-2.8-3.89l-2.51-5.92-1-2.37a11.83,11.83,0,0,0-.9-1.8,6.76,6.76,0,0,0-.81,2l-1,3.55q-.9,3.42-1.23,4.74L7.94,37a.76.76,0,0,1-.6.52c-.3.06-.48.16-.54.28a.75.75,0,0,1-.43-.76l.15-.9c.15-1,.3-1.8.42-2.27a16.79,16.79,0,0,1,.24-1.75A32.5,32.5,0,0,1,8,27.67a50.89,50.89,0,0,0,.76-5.35,39.88,39.88,0,0,1,.86-6.21l0-.52a5.39,5.39,0,0,1,.33-1.95q.19-.75.57-.75h.09l1-.15c.7,0,1.06.15,1.09.43l.29-.19a4.85,4.85,0,0,0,.71-.52c.6-.54,1-.81,1.28-.81s.42.3.42.81l-.95,2.65a5.07,5.07,0,0,0-.19,1.57l1,3.12a27.08,27.08,0,0,0,1.18,3c.23.79.38,1.37.48,1.75l1.56,3.79q1.47,3.6,2,3.84a12.11,12.11,0,0,0,.62-2.8l.8-5.11q.09-.61.29-6.68a16.93,16.93,0,0,1,.8-4.71A6.15,6.15,0,0,1,24,10l1.28-.61a2.3,2.3,0,0,1,1-.29.58.58,0,0,1,.61.43,2.63,2.63,0,0,1,.33,1.66L27,13.31l-.34,1.85Z" transform="translate(0 -1.36)"/><path d="M66.66,42H62.1V13.2h4.56v1.88a5.68,5.68,0,0,1,2.5-1.76,9.14,9.14,0,0,1,3.26-.6,9.47,9.47,0,0,1,7.38,3,10.77,10.77,0,0,1,2.7,7.56,11.36,11.36,0,0,1-2.86,8,9.68,9.68,0,0,1-7.54,3.16,12.39,12.39,0,0,1-3.1-.42,4.31,4.31,0,0,1-2.34-1.3Zm5.28-25a5.63,5.63,0,0,0-3.14.92,5.8,5.8,0,0,0-2.14,2.48v7.19a5.33,5.33,0,0,0,4.92,2.56,5.82,5.82,0,0,0,4.52-1.82,6.63,6.63,0,0,0,1.68-4.69,7.38,7.38,0,0,0-1.48-4.8A5.26,5.26,0,0,0,71.94,17Z" transform="translate(0 -1.36)"/><path d="M88,19.16,85.78,15.8a10.37,10.37,0,0,1,4-2.28,14.77,14.77,0,0,1,4.76-.8,8.52,8.52,0,0,1,6.32,2.22,8.65,8.65,0,0,1,2.2,6.34V34H98.46V31.71A8.24,8.24,0,0,1,92,34.23a8.42,8.42,0,0,1-5.4-1.7,5.81,5.81,0,0,1-2.16-4.86,5.85,5.85,0,0,1,.88-3.27,5.43,5.43,0,0,1,2.4-2,13.6,13.6,0,0,1,3.08-1,17.79,17.79,0,0,1,3.36-.3,15,15,0,0,1,4.28.56,5.08,5.08,0,0,0-1-3.48A4.47,4.47,0,0,0,94,17,9.67,9.67,0,0,0,88,19.16Zm5,11.11a6.72,6.72,0,0,0,3.12-.76,5.85,5.85,0,0,0,2.32-2.08v-2a13.88,13.88,0,0,0-3.8-.56c-3.66,0-5.48.91-5.48,2.75a2.11,2.11,0,0,0,1.18,2A5.45,5.45,0,0,0,93,30.27Z" transform="translate(0 -1.36)"/><path d="M108,41.75l1.8-3.88a1.73,1.73,0,0,0,.92.24q1.88,0,3.27-3.48l.73-1.88L104.5,13.2h5.28l7.15,14,5.52-14h4.88l-8.16,20.19a26,26,0,0,1-3.6,6.72,5.83,5.83,0,0,1-4.67,2.24A6.38,6.38,0,0,1,108,41.75Z" transform="translate(0 -1.36)"/></g></g></svg>