<svg xmlns="http://www.w3.org/2000/svg" viewBox="0 0 203.24 44.24"><defs><style>.cls-1{fill:#2787f5;}.cls-2{fill:#fff;fill-rule:evenodd;}</style></defs><g id="Layer_2" data-name="Layer 2"><g id="Layer_1-2" data-name="Layer 1"><path class="cls-1" d="M0,22.56c0-10,0-15,3.1-18.1s8.11-3.1,18.1-3.1H23c10,0,15,0,18.1,3.1s3.1,8.1,3.1,18.1V24.4c0,10,0,15-3.1,18.09S33,45.6,23,45.6H21.2c-10,0-15,0-18.1-3.11S0,34.39,0,24.4Z" transform="translate(0 -1.36)"/><path class="cls-2" d="M26.87,16.16v3.31l.05,1.85.24,1.57a7.17,7.17,0,0,1,.09,1v.57a7.82,7.82,0,0,1,.1,1.23,1,1,0,0,1,.33.85l-.05.95a5.4,5.4,0,0,1,.66,1.68c.29,1,.48,1.45.57,1.45.29,0,.73-.68,1.33-2l2.18-4.93a34.15,34.15,0,0,0,1.94-5,10.53,10.53,0,0,1,.29-3,3.11,3.11,0,0,1,1.94-1.95l.71-.28c.41,0,.62.43.62,1.19a13.86,13.86,0,0,1-.29,1.75q-.37,1.89-.66,2a14.06,14.06,0,0,1-1,3L33.79,27a30.83,30.83,0,0,1-2.65,5.4,1.87,1.87,0,0,1,.14.71,1.91,1.91,0,0,1-.71,1.26,11.33,11.33,0,0,0-.81.83,4.13,4.13,0,0,1-1.56,1.32l-.9.15c-.95,0-1.42-.38-1.42-1.14a2,2,0,0,1,.71-1.42l-.81-1.95-.28-1.7a2.61,2.61,0,0,1-.57-1.33,7.06,7.06,0,0,1-.24-1.56,10.33,10.33,0,0,1-.61-2.37v-.05A57.48,57.48,0,0,1,22.77,33a8.21,8.21,0,0,1-.33,1.23l-.62,1.09-1.18.57a1.85,1.85,0,0,1-1.09.38q-1.14,0-2.8-3.89l-2.51-5.92-1-2.37a11.83,11.83,0,0,0-.9-1.8,6.76,6.76,0,0,0-.81,2l-1,3.55q-.9,3.42-1.23,4.74L7.94,37a.76.76,0,0,1-.6.52c-.3.06-.48.16-.54.28a.75.75,0,0,1-.43-.76l.15-.9c.15-1,.3-1.8.42-2.27a16.79,16.79,0,0,1,.24-1.75A32.5,32.5,0,0,1,8,27.67a50.89,50.89,0,0,0,.76-5.35,39.88,39.88,0,0,1,.86-6.21l0-.52a5.39,5.39,0,0,1,.33-1.95q.19-.75.57-.75h.09l1-.15c.7,0,1.06.15,1.09.43l.29-.19a4.85,4.85,0,0,0,.71-.52c.6-.54,1-.81,1.28-.81s.42.3.42.81l-.95,2.65a5.07,5.07,0,0,0-.19,1.57l1,3.13a27.68,27.68,0,0,0,1.18,3c.23.79.38,1.37.48,1.75l1.56,3.79q1.47,3.6,2,3.84A12.11,12.11,0,0,0,21,29.43l.8-5.12q.09-.61.29-6.68a16.93,16.93,0,0,1,.8-4.71A6.15,6.15,0,0,1,24,10l1.28-.61a2.3,2.3,0,0,1,1-.29.59.59,0,0,1,.61.43,2.63,2.63,0,0,1,.33,1.66L27,13.31l-.34,1.85Z" transform="translate(0 -1.36)"/><path d="M61.14,23.56a10.34,10.34,0,0,1,3.16-7.84,11.11,11.11,0,0,1,8-3,11.07,11.07,0,0,1,8,3,10.37,10.37,0,0,1,3.14,7.82,10.21,10.21,0,0,1-3.2,7.79,11.19,11.19,0,0,1-8,3,11,11,0,0,1-7.94-3.06A10.28,10.28,0,0,1,61.14,23.56Zm4.72,0a6.48,6.48,0,0,0,1.8,4.67,6.08,6.08,0,0,0,4.6,1.88,6.22,6.22,0,0,0,4.7-1.8,6.54,6.54,0,0,0,1.74-4.75,6.54,6.54,0,0,0-1.8-4.74,6.72,6.72,0,0,0-9.28,0A6.63,6.63,0,0,0,65.86,23.56Z" transform="translate(0 -1.36)"/><path d="M105.58,34H101V17.44H91.26V34H86.7V13.2h18.88Z" transform="translate(0 -1.36)"/><path d="M114.41,42h-4.55V13.2h4.55v1.88a5.68,5.68,0,0,1,2.5-1.76,9.14,9.14,0,0,1,3.26-.6,9.47,9.47,0,0,1,7.38,3,10.77,10.77,0,0,1,2.7,7.56,11.36,11.36,0,0,1-2.86,8,9.66,9.66,0,0,1-7.54,3.16,12.39,12.39,0,0,1-3.1-.42,4.31,4.31,0,0,1-2.34-1.3Zm5.28-25a5.63,5.63,0,0,0-3.14.92,5.8,5.8,0,0,0-2.14,2.48v7.19a5.33,5.33,0,0,0,4.92,2.56,5.82,5.82,0,0,0,4.52-1.82,6.63,6.63,0,0,0,1.68-4.69,7.38,7.38,0,0,0-1.48-4.8A5.25,5.25,0,0,0,119.69,17Z" transform="translate(0 -1.36)"/><path d="M132.57,23.56a10.3,10.3,0,0,1,3.16-7.84,12.11,12.11,0,0,1,16,0,10.37,10.37,0,0,1,3.14,7.82,10.21,10.21,0,0,1-3.2,7.79,11.21,11.21,0,0,1-8,3,11,11,0,0,1-7.94-3.06A10.28,10.28,0,0,1,132.57,23.56Zm4.72,0a6.48,6.48,0,0,0,1.8,4.67,6.06,6.06,0,0,0,4.6,1.88,6.24,6.24,0,0,0,4.7-1.8,6.54,6.54,0,0,0,1.74-4.75,6.54,6.54,0,0,0-1.8-4.74A6.18,6.18,0,0,0,143.69,17a6.09,6.09,0,0,0-4.64,1.86A6.63,6.63,0,0,0,137.29,23.56Z" transform="translate(0 -1.36)"/><path d="M174,27.15l3.24,2.08a9.12,9.12,0,0,1-3.7,3.76,10.43,10.43,0,0,1-5.22,1.36,11.19,11.19,0,0,1-8.09-3,10.3,10.3,0,0,1-3.1-7.83,10.34,10.34,0,0,1,3.14-7.8,10.76,10.76,0,0,1,7.81-3,11.83,11.83,0,0,1,5.26,1.2A7.86,7.86,0,0,1,177,17.44l-3.4,2.24A6.33,6.33,0,0,0,168.32,17a6.2,6.2,0,0,0-4.66,1.84,6.56,6.56,0,0,0-1.77,4.76,6.11,6.11,0,0,0,2,4.75,7,7,0,0,0,4.93,1.8A6.06,6.06,0,0,0,174,27.15Z" transform="translate(0 -1.36)"/><path d="M187.48,34h-7.84V13.2h4.56v6h3.6q8.8,0,8.8,7.32a6.38,6.38,0,0,1-2.6,5.61A11.05,11.05,0,0,1,187.48,34Zm0-10.51H184.2v6.27h3.2q4.48,0,4.48-3.16a2.53,2.53,0,0,0-1.2-2.47A6.88,6.88,0,0,0,187.44,23.48ZM203.24,34h-4.56V13.2h4.56Z" transform="translate(0 -1.36)"/></g></g></svg>