<svg xmlns="http://www.w3.org/2000/svg" viewBox="0 0 273.1 44.24"><defs><style>.cls-1{fill:#2787f5;}.cls-2{fill:#fff;fill-rule:evenodd;}</style></defs><g id="Layer_2" data-name="Layer 2"><g id="Layer_1-2" data-name="Layer 1"><path class="cls-1" d="M0,22.56c0-10,0-15,3.1-18.1s8.11-3.1,18.1-3.1H23c10,0,15,0,18.1,3.1s3.1,8.1,3.1,18.1V24.4c0,10,0,15-3.1,18.09S33,45.6,23,45.6H21.2c-10,0-15,0-18.1-3.11S0,34.39,0,24.4Z" transform="translate(0 -1.36)"/><path class="cls-2" d="M26.87,16.16v3.31l.05,1.85.24,1.57a7.17,7.17,0,0,1,.09,1v.57a7.82,7.82,0,0,1,.1,1.23,1,1,0,0,1,.33.85l-.05.95a5.4,5.4,0,0,1,.66,1.68c.29,1,.48,1.45.57,1.45.29,0,.73-.68,1.33-2l2.18-4.93a34.15,34.15,0,0,0,1.94-5,10.53,10.53,0,0,1,.29-3,3.11,3.11,0,0,1,1.94-1.95l.71-.28c.41,0,.62.43.62,1.18a13.61,13.61,0,0,1-.29,1.76q-.37,1.89-.66,2a14.06,14.06,0,0,1-1,3L33.79,27a30.83,30.83,0,0,1-2.65,5.4,1.87,1.87,0,0,1,.14.71,1.91,1.91,0,0,1-.71,1.26,9.47,9.47,0,0,0-.81.83,4.22,4.22,0,0,1-1.56,1.32l-.9.15c-.95,0-1.42-.38-1.42-1.14a2,2,0,0,1,.71-1.42l-.81-1.95-.28-1.7a2.61,2.61,0,0,1-.57-1.33,7.06,7.06,0,0,1-.24-1.56,10.33,10.33,0,0,1-.61-2.37v-.05A57.48,57.48,0,0,1,22.77,33a8.21,8.21,0,0,1-.33,1.23l-.62,1.09-1.18.57a1.85,1.85,0,0,1-1.09.38q-1.14,0-2.8-3.89l-2.51-5.92-1-2.37a11.83,11.83,0,0,0-.9-1.8,6.76,6.76,0,0,0-.81,2l-1,3.55q-.9,3.42-1.23,4.74L7.94,37a.78.78,0,0,1-.6.52c-.3.06-.48.16-.54.28a.75.75,0,0,1-.43-.76l.15-.9c.15-1,.3-1.8.42-2.27a16.79,16.79,0,0,1,.24-1.75A32.5,32.5,0,0,1,8,27.67a50.89,50.89,0,0,0,.76-5.35,39.88,39.88,0,0,1,.86-6.21l0-.52a5.39,5.39,0,0,1,.33-1.95q.19-.75.57-.75h.09l1-.15c.7,0,1.06.15,1.09.43l.29-.19a4.85,4.85,0,0,0,.71-.52c.6-.54,1-.81,1.28-.81s.42.3.42.81l-.95,2.65a5.07,5.07,0,0,0-.19,1.57l1,3.12a27.08,27.08,0,0,0,1.18,3c.23.79.38,1.37.48,1.75l1.56,3.79q1.47,3.6,2,3.84a12.11,12.11,0,0,0,.62-2.8l.8-5.11q.09-.61.29-6.68a16.93,16.93,0,0,1,.8-4.71A6.15,6.15,0,0,1,24,10l1.28-.61a2.3,2.3,0,0,1,1-.29.58.58,0,0,1,.61.43,2.63,2.63,0,0,1,.33,1.66L27,13.31l-.34,1.85Z" transform="translate(0 -1.36)"/><path d="M81,34H76.42V17.44H66.66V34H62.1V13.2H81Z" transform="translate(0 -1.36)"/><path d="M84.3,23.56a10.3,10.3,0,0,1,3.16-7.84,12.11,12.11,0,0,1,16,0,10.37,10.37,0,0,1,3.13,7.82,10.2,10.2,0,0,1-3.19,7.79,11.21,11.21,0,0,1-8,3,11,11,0,0,1-7.94-3.06A10.28,10.28,0,0,1,84.3,23.56Zm4.72,0a6.48,6.48,0,0,0,1.8,4.67,6.06,6.06,0,0,0,4.6,1.88,6.24,6.24,0,0,0,4.7-1.8,6.54,6.54,0,0,0,1.74-4.75,6.54,6.54,0,0,0-1.8-4.74A6.18,6.18,0,0,0,95.42,17a6.09,6.09,0,0,0-4.64,1.86A6.59,6.59,0,0,0,89,23.56Z" transform="translate(0 -1.36)"/><path d="M114.41,42h-4.55V13.2h4.55v1.88a5.68,5.68,0,0,1,2.5-1.76,9.14,9.14,0,0,1,3.26-.6,9.47,9.47,0,0,1,7.38,3,10.77,10.77,0,0,1,2.7,7.56,11.38,11.38,0,0,1-2.86,8,9.66,9.66,0,0,1-7.54,3.16,12.39,12.39,0,0,1-3.1-.42,4.31,4.31,0,0,1-2.34-1.3Zm5.28-25a5.63,5.63,0,0,0-3.14.92,5.8,5.8,0,0,0-2.14,2.48v7.19a5.33,5.33,0,0,0,4.92,2.56,5.82,5.82,0,0,0,4.52-1.82,6.64,6.64,0,0,0,1.68-4.69,7.38,7.38,0,0,0-1.48-4.8A5.25,5.25,0,0,0,119.69,17Z" transform="translate(0 -1.36)"/><path d="M138.21,17.44h-7.52V13.2h19.6v4.24h-7.52V34h-4.56Z" transform="translate(0 -1.36)"/><path d="M166.6,42H162v-7.6h-.23a11.2,11.2,0,0,1-8.08-2.94,10.27,10.27,0,0,1-3.08-7.82,10.17,10.17,0,0,1,3.2-7.79,11.13,11.13,0,0,1,7.92-3H162v-8h4.56v8h.32a11,11,0,0,1,8,3,10.35,10.35,0,0,1,3.1,7.79,10.21,10.21,0,0,1-3.1,7.88,11.35,11.35,0,0,1-8.06,2.88h-.24ZM157,18.82a6.66,6.66,0,0,0-1.66,4.81,6.56,6.56,0,0,0,1.68,4.8,6.33,6.33,0,0,0,4.76,1.72H162V17.08h-.27A6.22,6.22,0,0,0,157,18.82Zm9.81-1.74h-.24V30.15h.24q6.45,0,6.44-6.52a6.64,6.64,0,0,0-1.66-4.85A6.34,6.34,0,0,0,166.84,17.08Z" transform="translate(0 -1.36)"/><path d="M180.16,23.56a10.3,10.3,0,0,1,3.16-7.84,12.11,12.11,0,0,1,16,0,10.37,10.37,0,0,1,3.14,7.82,10.21,10.21,0,0,1-3.2,7.79,11.19,11.19,0,0,1-8,3,11,11,0,0,1-7.94-3.06A10.28,10.28,0,0,1,180.16,23.56Zm4.72,0a6.48,6.48,0,0,0,1.8,4.67,6.06,6.06,0,0,0,4.6,1.88,6.24,6.24,0,0,0,4.7-1.8,6.54,6.54,0,0,0,1.74-4.75,6.54,6.54,0,0,0-1.8-4.74A6.18,6.18,0,0,0,191.28,17a6.09,6.09,0,0,0-4.64,1.86A6.63,6.63,0,0,0,184.88,23.56Z" transform="translate(0 -1.36)"/><path d="M223.71,34h-4.55V17.44H211.8v3.24q0,10.42-4.56,12.79a7.4,7.4,0,0,1-4.2.68l-.36-4.24a3.26,3.26,0,0,0,2.7-1.08,8,8,0,0,0,1.34-3.12,28.32,28.32,0,0,0,.6-6.59V13.2h16.39Z" transform="translate(0 -1.36)"/><path d="M243,20.48,231.91,34h-4V13.2h4.56V26.75l11-13.55h4V34H243Z" transform="translate(0 -1.36)"/><path d="M250.83,23.56A10.3,10.3,0,0,1,254,15.72a12.11,12.11,0,0,1,16,0,10.37,10.37,0,0,1,3.13,7.82,10.2,10.2,0,0,1-3.19,7.79,11.21,11.21,0,0,1-8,3A11,11,0,0,1,254,31.29,10.28,10.28,0,0,1,250.83,23.56Zm4.72,0a6.48,6.48,0,0,0,1.8,4.67,6.06,6.06,0,0,0,4.6,1.88,6.24,6.24,0,0,0,4.7-1.8,6.54,6.54,0,0,0,1.74-4.75,6.54,6.54,0,0,0-1.8-4.74A6.18,6.18,0,0,0,262,17a6.09,6.09,0,0,0-4.64,1.86A6.59,6.59,0,0,0,255.55,23.56Z" transform="translate(0 -1.36)"/></g></g></svg>