<svg xmlns="http://www.w3.org/2000/svg" viewBox="0 0 221.51 44.24"><defs><style>.cls-1{fill:#2787f5;}.cls-2{fill:#fff;fill-rule:evenodd;}</style></defs><g id="Layer_2" data-name="Layer 2"><g id="Layer_1-2" data-name="Layer 1"><path class="cls-1" d="M0,22.56c0-10,0-15,3.1-18.1s8.11-3.1,18.1-3.1H23c10,0,15,0,18.1,3.1s3.1,8.1,3.1,18.1V24.4c0,10,0,15-3.1,18.09S33,45.6,23,45.6H21.2c-10,0-15,0-18.1-3.11S0,34.39,0,24.4Z" transform="translate(0 -1.36)"/><path class="cls-2" d="M26.87,16.16v3.31l.05,1.85.24,1.57a7.17,7.17,0,0,1,.09,1v.57a7.82,7.82,0,0,1,.1,1.23,1,1,0,0,1,.33.85l-.05.95a5.4,5.4,0,0,1,.66,1.68c.29,1,.48,1.45.57,1.45.29,0,.73-.68,1.33-2l2.18-4.93a34.15,34.15,0,0,0,1.94-5,10.53,10.53,0,0,1,.29-3,3.11,3.11,0,0,1,1.94-1.95l.71-.28c.41,0,.62.43.62,1.19a13.86,13.86,0,0,1-.29,1.75q-.37,1.89-.66,2a14.06,14.06,0,0,1-1,3L33.79,27a30.83,30.83,0,0,1-2.65,5.4,1.87,1.87,0,0,1,.14.71,1.91,1.91,0,0,1-.71,1.26,11.33,11.33,0,0,0-.81.83,4.13,4.13,0,0,1-1.56,1.32l-.9.15c-.95,0-1.42-.38-1.42-1.14a2,2,0,0,1,.71-1.42l-.81-1.95-.28-1.7a2.61,2.61,0,0,1-.57-1.33,7.06,7.06,0,0,1-.24-1.56,10.33,10.33,0,0,1-.61-2.37v-.05A57.48,57.48,0,0,1,22.77,33a8.21,8.21,0,0,1-.33,1.23l-.62,1.09-1.18.57a1.85,1.85,0,0,1-1.09.38q-1.14,0-2.8-3.89l-2.51-5.92-1-2.37a11.83,11.83,0,0,0-.9-1.8,6.76,6.76,0,0,0-.81,2l-1,3.55q-.9,3.42-1.23,4.74L7.94,37a.76.76,0,0,1-.6.52c-.3.06-.48.16-.54.28a.75.75,0,0,1-.43-.76l.15-.9c.15-1,.3-1.8.42-2.27a16.79,16.79,0,0,1,.24-1.75A32.5,32.5,0,0,1,8,27.67a50.89,50.89,0,0,0,.76-5.35,39.88,39.88,0,0,1,.86-6.21l0-.52a5.39,5.39,0,0,1,.33-1.95q.19-.75.57-.75h.09l1-.15c.7,0,1.06.15,1.09.43l.29-.19a4.85,4.85,0,0,0,.71-.52c.6-.54,1-.81,1.28-.81s.42.3.42.81l-.95,2.65a5.07,5.07,0,0,0-.19,1.57l1,3.13a27.68,27.68,0,0,0,1.18,3c.23.79.38,1.37.48,1.75l1.56,3.79q1.47,3.6,2,3.84A12.11,12.11,0,0,0,21,29.43l.8-5.12q.09-.61.29-6.68a16.93,16.93,0,0,1,.8-4.71A6.15,6.15,0,0,1,24,10l1.28-.61a2.3,2.3,0,0,1,1-.29.59.59,0,0,1,.61.43,2.63,2.63,0,0,1,.33,1.66L27,13.31l-.34,1.85Z" transform="translate(0 -1.36)"/><path d="M81,34H76.42V17.44H66.66V34H62.1V13.2H81Z" transform="translate(0 -1.36)"/><path d="M89.82,42H85.26V13.2h4.56v1.88a5.57,5.57,0,0,1,2.5-1.76,9.1,9.1,0,0,1,3.26-.6,9.47,9.47,0,0,1,7.38,3,10.77,10.77,0,0,1,2.7,7.56,11.41,11.41,0,0,1-2.86,8,9.68,9.68,0,0,1-7.54,3.16,12.33,12.33,0,0,1-3.1-.42,4.31,4.31,0,0,1-2.34-1.3ZM95.1,17a5.58,5.58,0,0,0-3.14.92,5.74,5.74,0,0,0-2.14,2.48v7.19a5.33,5.33,0,0,0,4.92,2.56,5.83,5.83,0,0,0,4.52-1.82,6.63,6.63,0,0,0,1.68-4.69,7.44,7.44,0,0,0-1.48-4.8A5.26,5.26,0,0,0,95.1,17Z" transform="translate(0 -1.36)"/><path d="M108,23.56a10.33,10.33,0,0,1,3.15-7.84,12.11,12.11,0,0,1,16,0,10.37,10.37,0,0,1,3.14,7.82,10.21,10.21,0,0,1-3.2,7.79,11.17,11.17,0,0,1-8,3,11,11,0,0,1-7.94-3.06A10.27,10.27,0,0,1,108,23.56Zm4.71,0a6.52,6.52,0,0,0,1.8,4.68,6.1,6.1,0,0,0,4.6,1.87,6.22,6.22,0,0,0,4.7-1.8,6.52,6.52,0,0,0,1.74-4.75,6.54,6.54,0,0,0-1.8-4.74,6.72,6.72,0,0,0-9.28,0A6.63,6.63,0,0,0,112.69,23.56Z" transform="translate(0 -1.36)"/><path d="M149.37,27.36l2.8,2.75a9.94,9.94,0,0,1-8.44,4.24,11.14,11.14,0,0,1-8.08-3,10.36,10.36,0,0,1-3.08-7.83,10.69,10.69,0,0,1,2.94-7.88,10.4,10.4,0,0,1,7.74-3,9.63,9.63,0,0,1,7,2.66A9.18,9.18,0,0,1,153,22.24a24.83,24.83,0,0,1-.24,2.92H137.33a5,5,0,0,0,2.1,3.69,7.49,7.49,0,0,0,4.38,1.26,7.13,7.13,0,0,0,3.12-.73A6.55,6.55,0,0,0,149.37,27.36Zm-6.32-10.52a5.94,5.94,0,0,0-3.7,1.16,5.2,5.2,0,0,0-2,3.2h10.92Q147.69,16.84,143.05,16.84Z" transform="translate(0 -1.36)"/><path d="M160.85,34h-4.56V13.2h4.56v8.44l9-8.44h6l-10.12,9.4L176.16,34h-5.84l-7.95-8.55-1.52,1.48Z" transform="translate(0 -1.36)"/><path d="M183.6,17.44h-7.52V13.2h19.6v4.24h-7.52V34H183.6Z" transform="translate(0 -1.36)"/><path d="M205.76,34h-7.84V13.2h4.56v6h3.6q8.79,0,8.8,7.32a6.38,6.38,0,0,1-2.6,5.61A11.07,11.07,0,0,1,205.76,34Zm0-10.51h-3.24v6.27h3.2c3,0,4.48-1.05,4.48-3.16a2.53,2.53,0,0,0-1.2-2.47A6.88,6.88,0,0,0,205.72,23.48ZM221.51,34H217V13.2h4.56Z" transform="translate(0 -1.36)"/></g></g></svg>