<svg xmlns="http://www.w3.org/2000/svg" viewBox="0 0 220.4 44.24"><defs><style>.cls-1{fill:#2787f5;}.cls-2{fill:#fff;fill-rule:evenodd;}</style></defs><g id="Layer_2" data-name="Layer 2"><g id="Layer_1-2" data-name="Layer 1"><path class="cls-1" d="M0,22.56c0-10,0-15,3.1-18.1s8.11-3.1,18.1-3.1H23c10,0,15,0,18.1,3.1s3.1,8.1,3.1,18.1V24.4c0,10,0,15-3.1,18.09S33,45.6,23,45.6H21.2c-10,0-15,0-18.1-3.11S0,34.39,0,24.4Z" transform="translate(0 -1.36)"/><path class="cls-2" d="M26.87,16.16v3.31l.05,1.85.24,1.57a7.17,7.17,0,0,1,.09,1v.57a7.82,7.82,0,0,1,.1,1.23,1,1,0,0,1,.33.85l-.05.95a5.4,5.4,0,0,1,.66,1.68c.29,1,.48,1.45.57,1.45.29,0,.73-.68,1.33-2l2.18-4.93a34.15,34.15,0,0,0,1.94-5,10.53,10.53,0,0,1,.29-3,3.11,3.11,0,0,1,1.94-1.95l.71-.28c.41,0,.62.43.62,1.19a13.86,13.86,0,0,1-.29,1.75q-.37,1.89-.66,2a14.06,14.06,0,0,1-1,3L33.79,27a30.83,30.83,0,0,1-2.65,5.4,1.87,1.87,0,0,1,.14.71,1.91,1.91,0,0,1-.71,1.26,11.33,11.33,0,0,0-.81.83,4.13,4.13,0,0,1-1.56,1.32l-.9.15c-.95,0-1.42-.38-1.42-1.14a2,2,0,0,1,.71-1.42l-.81-1.95-.28-1.7a2.61,2.61,0,0,1-.57-1.33,7.06,7.06,0,0,1-.24-1.56,10.33,10.33,0,0,1-.61-2.37v-.05A57.48,57.48,0,0,1,22.77,33a8.21,8.21,0,0,1-.33,1.23l-.62,1.09-1.18.57a1.85,1.85,0,0,1-1.09.38q-1.14,0-2.8-3.89l-2.51-5.92-1-2.37a11.83,11.83,0,0,0-.9-1.8,6.76,6.76,0,0,0-.81,2l-1,3.55q-.9,3.42-1.23,4.74L7.94,37a.76.76,0,0,1-.6.52c-.3.06-.48.16-.54.28a.75.75,0,0,1-.43-.76l.15-.9c.15-1,.3-1.8.42-2.27a16.79,16.79,0,0,1,.24-1.75A32.5,32.5,0,0,1,8,27.67a50.89,50.89,0,0,0,.76-5.35,39.88,39.88,0,0,1,.86-6.21l0-.52a5.39,5.39,0,0,1,.33-1.95q.19-.75.57-.75h.09l1-.15c.7,0,1.06.15,1.09.43l.29-.19a4.85,4.85,0,0,0,.71-.52c.6-.54,1-.81,1.28-.81s.42.3.42.81l-.95,2.65a5.07,5.07,0,0,0-.19,1.57l1,3.13a27.68,27.68,0,0,0,1.18,3c.23.79.38,1.37.48,1.75l1.56,3.79q1.47,3.6,2,3.84A12.11,12.11,0,0,0,21,29.43l.8-5.12q.09-.61.29-6.68a16.93,16.93,0,0,1,.8-4.71A6.15,6.15,0,0,1,24,10l1.28-.61a2.3,2.3,0,0,1,1-.29.59.59,0,0,1,.61.43,2.63,2.63,0,0,1,.33,1.66L27,13.31l-.34,1.85Z" transform="translate(0 -1.36)"/><path d="M69.9,34.47q-6.6,0-9.6-5L63.74,27a6.46,6.46,0,0,0,2.62,2.46,7.6,7.6,0,0,0,3.58.86,7.36,7.36,0,0,0,3.16-.68,2.27,2.27,0,0,0,1.48-2.2c0-1.38-1.1-2.07-3.32-2.07h-4.6v-4H71a3.49,3.49,0,0,0,2-.58,1.86,1.86,0,0,0,.86-1.62,2,2,0,0,0-1.24-1.92,6.13,6.13,0,0,0-2.72-.6A7.23,7.23,0,0,0,64,19.52l-3.24-2.16A8.64,8.64,0,0,1,64.7,13.8a12.67,12.67,0,0,1,5.44-1.2,14.31,14.31,0,0,1,3.92.5A6.82,6.82,0,0,1,77.22,15a4.94,4.94,0,0,1,1.36,3.58,5.12,5.12,0,0,1-2,4.16,5,5,0,0,1,2.76,4.67,5.83,5.83,0,0,1-1.5,4.06,8,8,0,0,1-3.54,2.32A14.07,14.07,0,0,1,69.9,34.47Z" transform="translate(0 -1.36)"/><path d="M84.74,19.16,82.5,15.8a10.37,10.37,0,0,1,4-2.28,14.81,14.81,0,0,1,4.76-.8,8.52,8.52,0,0,1,6.32,2.22,8.65,8.65,0,0,1,2.2,6.34V34H95.18V31.71a8.24,8.24,0,0,1-6.44,2.52,8.42,8.42,0,0,1-5.4-1.7,5.81,5.81,0,0,1-2.16-4.86,5.85,5.85,0,0,1,.88-3.27,5.43,5.43,0,0,1,2.4-2,13.6,13.6,0,0,1,3.08-1,17.79,17.79,0,0,1,3.36-.3,15,15,0,0,1,4.28.56,5.08,5.08,0,0,0-1-3.48A4.47,4.47,0,0,0,90.7,17,9.7,9.7,0,0,0,84.74,19.16Zm5,11.11a6.72,6.72,0,0,0,3.12-.76,5.85,5.85,0,0,0,2.32-2.08v-2a13.88,13.88,0,0,0-3.8-.56c-3.65,0-5.48.91-5.48,2.75a2.11,2.11,0,0,0,1.18,2A5.45,5.45,0,0,0,89.74,30.27Z" transform="translate(0 -1.36)"/><path d="M122.73,34h-4.56V17.44h-9.76V34h-4.55V13.2h18.87Z" transform="translate(0 -1.36)"/><path d="M131.57,42H127V13.2h4.56v1.88a5.62,5.62,0,0,1,2.5-1.76,9.1,9.1,0,0,1,3.26-.6,9.47,9.47,0,0,1,7.38,3,10.77,10.77,0,0,1,2.7,7.56,11.41,11.41,0,0,1-2.86,8A9.68,9.68,0,0,1,137,34.35a12.33,12.33,0,0,1-3.1-.42,4.31,4.31,0,0,1-2.34-1.3Zm5.28-25a5.6,5.6,0,0,0-3.14.92,5.74,5.74,0,0,0-2.14,2.48v7.19a5.33,5.33,0,0,0,4.92,2.56A5.83,5.83,0,0,0,141,28.29a6.63,6.63,0,0,0,1.68-4.69,7.38,7.38,0,0,0-1.48-4.8A5.26,5.26,0,0,0,136.85,17Z" transform="translate(0 -1.36)"/><path d="M149.73,23.56a10.3,10.3,0,0,1,3.16-7.84,12.11,12.11,0,0,1,16,0A10.37,10.37,0,0,1,172,23.56a10.17,10.17,0,0,1-3.2,7.79,11.17,11.17,0,0,1-8,3,11,11,0,0,1-7.94-3.06A10.28,10.28,0,0,1,149.73,23.56Zm4.72,0a6.48,6.48,0,0,0,1.8,4.67,6.06,6.06,0,0,0,4.6,1.88,6.2,6.2,0,0,0,4.69-1.8,6.54,6.54,0,0,0,1.74-4.75,6.53,6.53,0,0,0-1.79-4.74A6.19,6.19,0,0,0,160.85,17a6.09,6.09,0,0,0-4.64,1.86A6.59,6.59,0,0,0,154.45,23.56Z" transform="translate(0 -1.36)"/><path d="M191.2,27.15l3.24,2.08a9.18,9.18,0,0,1-3.7,3.76,10.43,10.43,0,0,1-5.22,1.36,11.23,11.23,0,0,1-8.1-3,10.34,10.34,0,0,1-3.1-7.83,10.37,10.37,0,0,1,3.14-7.8,10.78,10.78,0,0,1,7.82-3,11.83,11.83,0,0,1,5.26,1.2,7.86,7.86,0,0,1,3.66,3.52l-3.4,2.24A6.33,6.33,0,0,0,185.48,17a6.18,6.18,0,0,0-4.66,1.84A6.53,6.53,0,0,0,179,23.56a6.11,6.11,0,0,0,2,4.75,7.07,7.07,0,0,0,4.94,1.8A6.06,6.06,0,0,0,191.2,27.15Z" transform="translate(0 -1.36)"/><path d="M204.64,34H196.8V13.2h4.56v6H205q8.79,0,8.8,7.32a6.38,6.38,0,0,1-2.6,5.61A11.07,11.07,0,0,1,204.64,34Zm0-10.51h-3.24v6.27h3.2c3,0,4.48-1.05,4.48-3.16a2.53,2.53,0,0,0-1.2-2.47A6.88,6.88,0,0,0,204.6,23.48ZM220.4,34h-4.56V13.2h4.56Z" transform="translate(0 -1.36)"/></g></g></svg>