<svg xmlns="http://www.w3.org/2000/svg" viewBox="0 0 155.17 44.24"><defs><style>.cls-1{fill:#2787f5;}.cls-2{fill:#fff;fill-rule:evenodd;}</style></defs><g id="Layer_2" data-name="Layer 2"><g id="Layer_1-2" data-name="Layer 1"><path class="cls-1" d="M0,22.56c0-10,0-15,3.1-18.1s8.11-3.1,18.1-3.1H23c10,0,15,0,18.1,3.1s3.1,8.1,3.1,18.1V24.4c0,10,0,15-3.1,18.09S33,45.6,23,45.6H21.2c-10,0-15,0-18.1-3.11S0,34.39,0,24.4Z" transform="translate(0 -1.36)"/><path class="cls-2" d="M26.87,16.16v3.31l.05,1.85.24,1.57a7.17,7.17,0,0,1,.09,1v.57a7.82,7.82,0,0,1,.1,1.23,1,1,0,0,1,.33.85l-.05.95a5.4,5.4,0,0,1,.66,1.68c.29,1,.48,1.45.57,1.45.29,0,.73-.68,1.33-2l2.18-4.93a34.15,34.15,0,0,0,1.94-5,10.53,10.53,0,0,1,.29-3,3.11,3.11,0,0,1,1.94-1.95l.71-.28c.41,0,.62.43.62,1.19a13.86,13.86,0,0,1-.29,1.75q-.37,1.89-.66,2a14.06,14.06,0,0,1-1,3L33.79,27a30.83,30.83,0,0,1-2.65,5.4,1.87,1.87,0,0,1,.14.71,1.91,1.91,0,0,1-.71,1.26,11.33,11.33,0,0,0-.81.83,4.13,4.13,0,0,1-1.56,1.32l-.9.15c-.95,0-1.42-.38-1.42-1.14a2,2,0,0,1,.71-1.42l-.81-1.95-.28-1.7a2.61,2.61,0,0,1-.57-1.33,7.06,7.06,0,0,1-.24-1.56,10.33,10.33,0,0,1-.61-2.37v-.05A57.48,57.48,0,0,1,22.77,33a8.21,8.21,0,0,1-.33,1.23l-.62,1.09-1.18.57a1.85,1.85,0,0,1-1.09.38q-1.14,0-2.8-3.89l-2.51-5.92-1-2.37a11.83,11.83,0,0,0-.9-1.8,6.76,6.76,0,0,0-.81,2l-1,3.55q-.9,3.42-1.23,4.74L7.94,37a.76.76,0,0,1-.6.52c-.3.06-.48.16-.54.28a.75.75,0,0,1-.43-.76l.15-.9c.15-1,.3-1.8.42-2.27a16.79,16.79,0,0,1,.24-1.75A32.5,32.5,0,0,1,8,27.67a50.89,50.89,0,0,0,.76-5.35,39.88,39.88,0,0,1,.86-6.21l0-.52a5.39,5.39,0,0,1,.33-1.95q.19-.75.57-.75h.09l1-.15c.7,0,1.06.15,1.09.43l.29-.19a4.85,4.85,0,0,0,.71-.52c.6-.54,1-.81,1.28-.81s.42.3.42.81l-.95,2.65a5.07,5.07,0,0,0-.19,1.57l1,3.13a27.68,27.68,0,0,0,1.18,3c.23.79.38,1.37.48,1.75l1.56,3.79q1.47,3.6,2,3.84A12.11,12.11,0,0,0,21,29.43l.8-5.12q.09-.61.29-6.68a16.93,16.93,0,0,1,.8-4.71A6.15,6.15,0,0,1,24,10l1.28-.61a2.3,2.3,0,0,1,1-.29.59.59,0,0,1,.61.43,2.63,2.63,0,0,1,.33,1.66L27,13.31l-.34,1.85Z" transform="translate(0 -1.36)"/><path d="M74.22,28.07a1.38,1.38,0,0,0-.36-.84,3.83,3.83,0,0,0-1.32-.79,33.72,33.72,0,0,0-3.28-1c-1-.3-1.88-.58-2.62-.86a16.84,16.84,0,0,1-2.38-1.18,5.72,5.72,0,0,1-2-1.88,4.87,4.87,0,0,1-.68-2.56A5.23,5.23,0,0,1,63,15.22a6.79,6.79,0,0,1,3.18-2,14.55,14.55,0,0,1,4-.52,12.29,12.29,0,0,1,4.72,1,8.34,8.34,0,0,1,3.68,2.7l-3.12,3q-2-2.4-6-2.4c-1.38,0-2.3.3-2.76.92a1.85,1.85,0,0,0-.32,1,1.34,1.34,0,0,0,.64,1,13.07,13.07,0,0,0,3.2,1.2c1.84.53,3,.9,3.56,1.12a16.87,16.87,0,0,1,2.78,1.42,6.14,6.14,0,0,1,1.86,2A5.15,5.15,0,0,1,78.94,28a5.25,5.25,0,0,1-1.36,3.72,7,7,0,0,1-3.2,2,13.43,13.43,0,0,1-4,.56,13,13,0,0,1-5.68-1.3,8.31,8.31,0,0,1-4-3.7l3.6-2.47a6.68,6.68,0,0,0,2.78,2.35,8.4,8.4,0,0,0,3.7.88c1.52,0,2.55-.34,3.08-1A1.84,1.84,0,0,0,74.22,28.07Z" transform="translate(0 -1.36)"/><path d="M83.54,17.44h-3.6V13.2h3.6V8.92H88.1V13.2h6.72v4.24H88.1v8A11.44,11.44,0,0,0,88.18,27a7.5,7.5,0,0,0,.32,1.4,2.08,2.08,0,0,0,.82,1.16,2.47,2.47,0,0,0,1.46.4,3.87,3.87,0,0,0,3-1.76l2.72,2.56a6.47,6.47,0,0,1-2.68,2.52,7.78,7.78,0,0,1-3.68.92,5.88,5.88,0,0,1-4.92-2.06,8.46,8.46,0,0,1-1.64-5.42Z" transform="translate(0 -1.36)"/><path d="M96.66,23.56a10.3,10.3,0,0,1,3.16-7.84,12.1,12.1,0,0,1,16,0,10.34,10.34,0,0,1,3.14,7.82,10.17,10.17,0,0,1-3.2,7.79,11.17,11.17,0,0,1-8,3,11,11,0,0,1-7.94-3.06A10.28,10.28,0,0,1,96.66,23.56Zm4.72,0a6.48,6.48,0,0,0,1.8,4.67,6.06,6.06,0,0,0,4.6,1.88,6.2,6.2,0,0,0,4.69-1.8,6.54,6.54,0,0,0,1.74-4.75,6.5,6.5,0,0,0-1.8-4.74A6.15,6.15,0,0,0,107.78,17a6.09,6.09,0,0,0-4.64,1.86A6.59,6.59,0,0,0,101.38,23.56Z" transform="translate(0 -1.36)"/><path d="M126.77,34h-4.56V13.2h4.56v1.4a2.28,2.28,0,0,1,.72-.8,4.35,4.35,0,0,1,3-1,7.34,7.34,0,0,1,2.16.32,4.37,4.37,0,0,1,2,1.52l-2.6,3.32A2.27,2.27,0,0,0,130,17a2.78,2.78,0,0,0-2.06.82,4.29,4.29,0,0,0-1.14,2.1Z" transform="translate(0 -1.36)"/><path d="M151.53,27.35l2.8,2.76a9.94,9.94,0,0,1-8.44,4.24,11.13,11.13,0,0,1-8.08-3,10.36,10.36,0,0,1-3.08-7.83,10.69,10.69,0,0,1,2.94-7.88,10.4,10.4,0,0,1,7.74-3,9.63,9.63,0,0,1,7,2.66,9.18,9.18,0,0,1,2.72,6.86,24.83,24.83,0,0,1-.24,2.92H139.49a4.93,4.93,0,0,0,2.1,3.69A7.49,7.49,0,0,0,146,30.11a7,7,0,0,0,3.12-.74A6.37,6.37,0,0,0,151.53,27.35Zm-6.32-10.51a5.92,5.92,0,0,0-3.7,1.16,5.2,5.2,0,0,0-2,3.2h10.92Q149.85,16.84,145.21,16.84Z" transform="translate(0 -1.36)"/></g></g></svg>